<?xml version="1.0" encoding="utf-8" ?>
<svg baseProfile="full" height="100%" version="1.1" viewBox="0,0,1000,120" width="100%" xmlns="http://www.w3.org/2000/svg" xmlns:ev="http://www.w3.org/2001/xml-events" xmlns:xlink="http://www.w3.org/1999/xlink"><defs /><rect fill="white" height="120" width="1000" x="0" y="0" /><path d="M0,0 M446.8636474609375,46.14390563964844 L446.9163818359375,46.23876953125 L447.0213928222656,46.58576583862305 L447.13134765625,47.333805084228516 L447.1691589355469,48.5594482421875 L447.07183837890625,50.22727584838867 L446.8210144042969,52.227577209472656 L446.4943542480469,54.41270446777344 L446.1874084472656,56.63119888305664 L445.96466064453125,58.73189163208008 L445.84515380859375,60.55436325073242 L445.8047790527344,61.980567932128906 L445.79705810546875,62.93692398071289 L445.81829833984375,63.39363098144531 L445.8832702636719,63.34666442871094 L446.0434875488281,62.802589416503906 L446.3639831542969,61.767913818359375 L446.8831787109375,60.32966995239258 L447.5981750488281,58.63059616088867 L448.4949035644531,56.852378845214844 L449.5330810546875,55.18410873413086 L450.662353515625,53.7812614440918 L451.844482421875,52.73894119262695 L453.0235900878906,52.12334060668945 L454.13494873046875,51.96109390258789 L455.1214294433594,52.25257873535156 L455.92987060546875,52.98691177368164 L456.4917297363281,54.12663650512695 L456.7811279296875,55.59262466430664 L456.8100280761719,57.271549224853516 L456.65924072265625,59.023521423339844 L456.45257568359375,60.688499450683594 L456.3261413574219,62.113182067871094 L456.34521484375,63.189701080322266 L456.5201110839844,63.87916564941406 L456.7362365722656,64.22660064697266 L456.906494140625,64.34750366210938 M460.34844970703125,62.7845458984375 L460.4781188964844,62.74785614013672 L460.8536376953125,62.55826950073242 L461.5695495605469,62.10247039794922 L462.6292724609375,61.3153190612793 L463.9355163574219,60.227333068847656 L465.3432312011719,58.930728912353516 L466.6891174316406,57.53682327270508 L467.8327331542969,56.15012741088867 L468.66290283203125,54.853336334228516 L469.09619140625,53.729209899902344 L469.0869445800781,52.86027145385742 L468.63702392578125,52.32975387573242 L467.76666259765625,52.21315002441406 L466.538818359375,52.57175064086914 L465.0871887207031,53.42356872558594 L463.5853271484375,54.724769592285156 L462.2613525390625,56.354949951171875 L461.3204650878906,58.14519500732422 L460.89208984375,59.90962219238281 L461.0267333984375,61.492008209228516 L461.726318359375,62.77408981323242 L462.93914794921875,63.68189239501953 L464.5855407714844,64.19354248046875 L466.5956115722656,64.24129486083984 L468.8132629394531,63.814266204833984 L471.04034423828125,62.9797477722168 L472.80224609375,62.099212646484375 L473.8824157714844,61.440948486328125 M477.55914306640625,45.526832580566406 L477.5938720703125,45.82081604003906 L477.6165771484375,46.4755744934082 L477.5916442871094,47.564876556396484 L477.46356201171875,49.04899978637695 L477.2199401855469,50.865684509277344 L476.8831787109375,52.921180725097656 L476.49981689453125,55.11726379394531 L476.1231689453125,57.35619354248047 L475.8154602050781,59.48162078857422 L475.6041259765625,61.324668884277344 L475.4919128417969,62.627498626708984 L475.4555969238281,63.340110778808594 M481.58624267578125,45.85419464111328 L481.62286376953125,45.92011642456055 L481.6573791503906,46.198123931884766 L481.6573486328125,46.82301330566406 L481.590576171875,47.86949157714844 L481.44677734375,49.31570816040039 L481.20751953125,51.0926399230957 L480.871826171875,53.09625244140625 L480.48291015625,55.2242431640625 L480.1121520996094,57.317359924316406 L479.85052490234375,59.1939582824707 L479.72381591796875,60.55199432373047 L479.69866943359375,61.31141662597656 M491.3989562988281,54.647315979003906 L491.1802062988281,54.221435546875 L490.7218322753906,53.64382553100586 L489.988037109375,53.11334991455078 L489.013671875,52.91592788696289 L487.846435546875,53.14769744873047 L486.57244873046875,53.830421447753906 L485.340087890625,54.89501190185547 L484.32342529296875,56.22392654418945 L483.6979064941406,57.66233444213867 L483.5794677734375,59.05836868286133 L483.99285888671875,60.27415084838867 L484.8855895996094,61.20460891723633 L486.17596435546875,61.77774429321289 L487.74652099609375,61.93868637084961 L489.45806884765625,61.67025375366211 L491.14501953125,61.00525665283203 L492.6327209472656,60.018394470214844 L493.776611328125,58.82664489746094 L494.4906311035156,57.55576705932617 L494.71331787109375,56.3189697265625 L494.4803161621094,55.21986389160156 L493.8984069824219,54.33384704589844 L493.2705383300781,53.74477767944336 L492.8109436035156,53.44405746459961 M516.3709716796875,54.74873733520508 L516.269287109375,54.4505615234375 L516.0440673828125,53.99448776245117 L515.6488037109375,53.477603912353516 L515.0361328125,53.064937591552734 L514.1573486328125,52.83686065673828 L513.008544921875,52.86415481567383 L511.6356201171875,53.19983673095703 L510.10748291015625,53.87516403198242 L508.5411682128906,54.891761779785156 L507.0517578125,56.20379638671875 L505.7637939453125,57.724727630615234 L504.9222412109375,59.357818603515625 L504.70849609375,60.9657096862793 L505.18798828125,62.39820098876953 L505.9683837890625,63.42975616455078 L506.6701965332031,64.00418853759766 M525.5048828125,55.4245719909668 L525.2265625,55.03458786010742 L524.7297973632812,54.51112365722656 L523.9999389648438,54.02703094482422 L523.0775756835938,53.8292350769043 L521.9501342773438,53.9977912902832 L520.65087890625,54.57659912109375 L519.2953491210938,55.53818893432617 L518.06591796875,56.84194564819336 L517.1408081054688,58.374610900878906 L516.6731567382812,59.97219467163086 L516.7334594726562,61.44878387451172 L517.32275390625,62.6353759765625 L518.40478515625,63.38786697387695 L519.8875732421875,63.63865280151367 L521.6038818359375,63.37257385253906 L523.3771362304688,62.63041305541992 L525.0083618164062,61.502872467041016 L526.3232421875,60.1074333190918 L527.2221069335938,58.56925964355469 L527.63427734375,57.05387878417969 L527.548583984375,55.72895050048828 L527.0738525390625,54.72692108154297 L526.5086059570312,54.12227249145508 L526.0707397460938,53.85734558105469 M532.4388427734375,53.22306442260742 L532.429931640625,53.33856201171875 L532.399658203125,53.686458587646484 L532.3170776367188,54.378196716308594 L532.1453247070312,55.44244384765625 L531.8673095703125,56.82662582397461 L531.5048828125,58.403594970703125 L531.13232421875,59.99824142456055 L530.8421020507812,61.427581787109375 L530.7006225585938,62.53999710083008 L530.7322998046875,63.21114730834961 L530.9283447265625,63.381710052490234 L531.2781372070312,63.020782470703125 L531.7794799804688,62.134727478027344 L532.4288330078125,60.80466079711914 L533.2138671875,59.19247055053711 L534.1280517578125,57.49585723876953 L535.1453247070312,55.913856506347656 L536.2548828125,54.589080810546875 L537.4307861328125,53.603416442871094 L538.6270751953125,53.006778717041016 L539.7918701171875,52.837581634521484 L540.8759155273438,53.11232376098633 L541.8128662109375,53.82989501953125 L542.54736328125,54.94544219970703 L543.0306396484375,56.37054443359375 L543.241943359375,57.98928451538086 L543.2273559570312,59.675926208496094 L543.0839233398438,61.282310485839844 L542.9331665039062,62.662742614746094 L542.861328125,63.699928283691406 L542.8679809570312,64.32685089111328 L542.909423828125,64.6045913696289 M547.9682006835938,53.28691101074219 M547.7825927734375,54.34679412841797 L547.7354736328125,54.929656982421875 L547.6787719726562,55.92464065551758 L547.6322631835938,57.247623443603516 L547.63916015625,58.66405487060547 L547.7393188476562,60.061851501464844 L547.9384765625,61.32323455810547 L548.2684326171875,62.36745834350586 L548.752685546875,63.09617233276367 L549.394775390625,63.42535400390625 L550.2008666992188,63.2928466796875 L551.1412963867188,62.676483154296875 L552.1452026367188,61.60609817504883 L553.130126953125,60.188323974609375 L554.012451171875,58.58436965942383 L554.726806640625,56.9416389465332 L555.2484741210938,55.41229248046875 L555.5759887695312,54.112300872802734 L555.7431640625,53.20225143432617 L555.8011474609375,52.705623626708984 M557.2932739257812,60.97381591796875 L557.823974609375,60.77661895751953 L558.7881469726562,60.34996032714844 L560.1094970703125,59.668128967285156 L561.5481567382812,58.7685661315918 L562.9478759765625,57.71135330200195 L564.1758422851562,56.56892013549805 L565.1541137695312,55.41691970825195 L565.8487548828125,54.336883544921875 L566.2008056640625,53.41691207885742 L566.1522216796875,52.72190475463867 L565.667724609375,52.32129669189453 L564.73046875,52.268802642822266 L563.3803100585938,52.62232208251953 L561.7764892578125,53.40645217895508 L560.1144409179688,54.57476043701172 L558.6145629882812,56.0216064453125 L557.4835815429688,57.61930465698242 L556.8626708984375,59.226715087890625 L556.8038940429688,60.737388610839844 L557.4219970703125,62.03828430175781 L558.677001953125,63.01058578491211 L560.423583984375,63.59221267700195 L562.064697265625,63.841617584228516 L563.2049560546875,63.879764556884766 M571.740234375,54.83271789550781 L571.7135620117188,55.01990509033203 L571.6670532226562,55.479820251464844 L571.5947265625,56.283878326416016 L571.4855346679688,57.39886474609375 L571.3201293945312,58.719764709472656 L571.109619140625,60.11207962036133 L570.910400390625,61.43549728393555 L570.7748413085938,62.560123443603516 L570.7412109375,63.38958740234375 L570.7974853515625,63.84639358520508 L570.9014892578125,63.881385803222656 L571.0140991210938,63.46271514892578 L571.1405029296875,62.590850830078125 L571.2813110351562,61.32745361328125 L571.4403686523438,59.80066680908203 L571.6209106445312,58.1658935546875 L571.8414306640625,56.56598663330078 L572.1468505859375,55.09302520751953 L572.6060180664062,53.80774688720703 L573.2854614257812,52.76447296142578 L574.22021484375,52.012237548828125 L575.4036865234375,51.580413818359375 L576.7789306640625,51.470619201660156 L578.2913208007812,51.612369537353516 L579.8250122070312,51.88957214355469 L581.2744750976562,52.16976547241211 L582.3785400390625,52.36131286621094 L583.034912109375,52.44307327270508 M588.1082763671875,45.0 L588.1834716796875,45.22105407714844 L588.2635498046875,45.768985748291016 L588.2893676757812,46.733333587646484 L588.1944580078125,48.09326934814453 L587.9712524414062,49.75625228881836 L587.644287109375,51.650108337402344 L587.2392578125,53.690189361572266 L586.7891845703125,55.79536437988281 L586.3231201171875,57.87214660644531 L585.8890380859375,59.80691909790039 L585.5548095703125,61.49235534667969 L585.3587036132812,62.81372833251953 L585.294189453125,63.67987060546875 L585.3311157226562,64.07357788085938 L585.397705078125,64.13642120361328 L585.4495849609375,64.04786682128906 M583.2557983398438,54.10539627075195 L583.6075439453125,54.040367126464844 L584.4005126953125,53.96422576904297 L585.7002563476562,53.90923309326172 L587.423828125,53.9118537902832 L589.4411010742188,53.96443176269531 L591.1820068359375,54.02796936035156 L592.33642578125,54.077552795410156 " fill="none" stroke="black" stroke-linecap="round" stroke-width="2" /></svg>