<?xml version="1.0" encoding="utf-8" ?>
<svg baseProfile="full" height="100%" version="1.1" viewBox="0,0,1000,180" width="100%" xmlns="http://www.w3.org/2000/svg" xmlns:ev="http://www.w3.org/2001/xml-events" xmlns:xlink="http://www.w3.org/1999/xlink"><defs /><rect fill="white" height="180" width="1000" x="0" y="0" /><path d="M0,0 M406.94635009765625,67.99424743652344 L407.295166015625,67.77958679199219 L407.9685363769531,67.33634948730469 L408.964599609375,66.6374740600586 L410.160400390625,65.72278594970703 L411.42877197265625,64.63258361816406 L412.6289367675781,63.4307975769043 L413.6219482421875,62.18416213989258 L414.3064880371094,60.95376205444336 L414.59716796875,59.80168533325195 L414.4407958984375,58.78221893310547 L413.80682373046875,57.95853042602539 L412.72821044921875,57.409149169921875 L411.29876708984375,57.21900177001953 L409.68701171875,57.4511833190918 L408.0729064941406,58.13468933105469 L406.6173095703125,59.25608825683594 L405.4390869140625,60.755184173583984 L404.6361083984375,62.537940979003906 L404.26708984375,64.47758483886719 L404.372314453125,66.43462371826172 L404.95538330078125,68.2815933227539 L405.9598388671875,69.91618347167969 L407.2857666015625,71.25944519042969 L408.8578796386719,72.24259948730469 L410.5376892089844,72.82659149169922 L412.18670654296875,73.03055572509766 L413.47698974609375,73.00054931640625 L414.2591857910156,72.88886260986328 M417.5417175292969,59.02018737792969 L417.574951171875,59.07616424560547 L417.64910888671875,59.315338134765625 L417.7557678222656,59.855560302734375 L417.84454345703125,60.75621795654297 L417.882080078125,61.988346099853516 L417.8517761230469,63.49303436279297 L417.7571716308594,65.1661376953125 L417.6070251464844,66.89823913574219 L417.4217834472656,68.57785034179688 L417.1950378417969,70.07197570800781 L416.9646911621094,71.27369689941406 L416.77056884765625,72.09832763671875 L416.65643310546875,72.46728515625 L416.6275634765625,72.33045959472656 L416.6974182128906,71.68196868896484 L416.85211181640625,70.56144714355469 L417.10247802734375,69.08635711669922 L417.4656677246094,67.38467407226562 L417.98797607421875,65.56062316894531 L418.65948486328125,63.69799041748047 L419.4788513183594,61.87764358520508 L420.4154357910156,60.2054557800293 L421.4351806640625,58.81192398071289 L422.491943359375,57.80770492553711 L423.5692138671875,57.26652908325195 L424.5927734375,57.229434967041016 L425.4978942871094,57.704254150390625 L426.2056579589844,58.67903137207031 L426.633544921875,60.082176208496094 L426.73419189453125,61.8172492980957 L426.53973388671875,63.762203216552734 L426.15435791015625,65.81074523925781 L425.7418212890625,67.8151626586914 L425.4521789550781,69.6293716430664 L425.3197937011719,70.95448303222656 L425.3044128417969,71.70760345458984 M434.47430419921875,45.0 L434.4542236328125,45.324222564697266 L434.43646240234375,46.02113342285156 L434.4153137207031,47.15092849731445 L434.38787841796875,48.66431427001953 L434.33270263671875,50.495216369628906 L434.23046875,52.567298889160156 L434.0741882324219,54.81296157836914 L433.8774719238281,57.16763687133789 L433.6439208984375,59.55768585205078 L433.3880615234375,61.90266799926758 L433.1273498535156,64.11470794677734 L432.87744140625,66.10565185546875 L432.6548156738281,67.77632904052734 L432.4642028808594,69.05528259277344 L432.32763671875,69.86712646484375 L432.2461853027344,70.26348114013672 M427.7674560546875,61.56861114501953 L427.8576965332031,61.54963684082031 L428.2127685546875,61.57572937011719 L428.9532165527344,61.66923904418945 L430.11126708984375,61.832618713378906 L431.5723876953125,62.015350341796875 L433.1851806640625,62.167213439941406 L434.8248291015625,62.248756408691406 L436.43902587890625,62.20793533325195 L437.9595031738281,62.01536560058594 L439.3171691894531,61.686317443847656 L440.30859375,61.35025405883789 L440.87213134765625,61.104976654052734 M440.7232971191406,65.3456039428711 L440.93963623046875,65.40103149414062 L441.4123840332031,65.39717864990234 L442.1720886230469,65.24091339111328 L443.1696472167969,64.84758758544922 L444.3079528808594,64.21314239501953 L445.4498291015625,63.35478210449219 L446.47869873046875,62.32859802246094 L447.29345703125,61.20456314086914 L447.8175354003906,60.06667709350586 L448.0080871582031,58.99791717529297 L447.83306884765625,58.082969665527344 L447.2774963378906,57.38028335571289 L446.35711669921875,56.95539093017578 L445.1329345703125,56.88150405883789 L443.7030029296875,57.21039581298828 L442.190673828125,57.95907211303711 L440.7410583496094,59.10480880737305 L439.5026550292969,60.57787322998047 L438.5950012207031,62.28712463378906 L438.12548828125,64.12647247314453 L438.15008544921875,65.97476196289062 L438.679443359375,67.72418975830078 L439.65997314453125,69.27349090576172 L441.07550048828125,70.53076934814453 L442.8056640625,71.43684387207031 L444.67877197265625,71.96903228759766 L446.23077392578125,72.19622039794922 L447.21630859375,72.239501953125 M452.7921142578125,60.43989562988281 L452.78363037109375,60.6651611328125 L452.74505615234375,61.177982330322266 L452.6457824707031,62.05091857910156 L452.45751953125,63.25171661376953 L452.18902587890625,64.70755767822266 L451.861328125,66.30072021484375 L451.54925537109375,67.88145446777344 L451.31195068359375,69.30101776123047 L451.17779541015625,70.43499755859375 L451.1317138671875,71.22443389892578 L451.135986328125,71.66095733642578 L451.1178283691406,71.75099182128906 L451.05950927734375,71.48108673095703 L450.97509765625,70.81724548339844 L450.9197692871094,69.74028778076172 L450.950439453125,68.32831573486328 L451.1018981933594,66.69464111328125 L451.36212158203125,64.96136474609375 L451.7259521484375,63.2337646484375 L452.186279296875,61.581390380859375 L452.7577209472656,60.05351257324219 L453.44512939453125,58.716251373291016 L454.22845458984375,57.61912536621094 L455.08880615234375,56.800880432128906 L455.9818420410156,56.27382278442383 L456.8182678222656,56.009254455566406 L457.5038146972656,55.94734191894531 L457.931884765625,56.0240592956543 L458.03326416015625,56.1728515625 L457.8793029785156,56.35730743408203 L457.5857238769531,56.54731750488281 L457.3154602050781,56.7017822265625 L457.2110595703125,56.788700103759766 L457.2982482910156,56.807029724121094 L457.4678955078125,56.7811279296875 L457.6300354003906,56.747772216796875 M472.5286865234375,59.40251541137695 L472.60260009765625,59.47459030151367 L472.7366027832031,59.71605682373047 L472.9016418457031,60.22590637207031 L473.0386657714844,61.05888366699219 L473.10595703125,62.200809478759766 L473.090576171875,63.58845901489258 L473.02301025390625,65.1361312866211 L472.93475341796875,66.72691345214844 L472.8734130859375,68.249267578125 L472.8721923828125,69.58169555664062 L472.9665222167969,70.61524963378906 L473.1875915527344,71.25753784179688 L473.55169677734375,71.44952392578125 L474.0514831542969,71.14945220947266 L474.6947937011719,70.37294006347656 L475.4315490722656,69.17437744140625 L476.2073974609375,67.6591796875 L476.9742431640625,65.94754791259766 L477.67779541015625,64.17154693603516 L478.2800598144531,62.43763732910156 L478.759033203125,60.85329818725586 L479.0685729980469,59.52543258666992 L479.20477294921875,58.522369384765625 L479.2078857421875,57.868221282958984 L479.11932373046875,57.556758880615234 L478.98974609375,57.549842834472656 L478.8348083496094,57.84462356567383 L478.64111328125,58.48568344116211 L478.4109802246094,59.505706787109375 L478.14178466796875,60.912574768066406 L477.8113098144531,62.680606842041016 L477.41705322265625,64.75419616699219 L476.95623779296875,67.09068298339844 L476.4200134277344,69.65640258789062 L475.81573486328125,72.41239929199219 L475.11968994140625,75.30524444580078 L474.319580078125,78.27275848388672 L473.39764404296875,81.22151184082031 L472.3658447265625,84.05878448486328 L471.2376403808594,86.67544555664062 L470.0606689453125,88.95114135742188 L468.87713623046875,90.78058624267578 L467.77099609375,92.11719512939453 L466.7679443359375,92.84254455566406 L465.9069519042969,92.92405700683594 L465.19647216796875,92.41718292236328 L464.7037353515625,91.70114135742188 L464.4257507324219,91.09303283691406 M485.78485107421875,59.29194641113281 L485.43359375,59.22793197631836 L484.82916259765625,59.255428314208984 L484.007568359375,59.52281951904297 L483.08062744140625,60.17348861694336 L482.1014404296875,61.24659729003906 L481.1192626953125,62.68303680419922 L480.2142333984375,64.36090850830078 L479.5309753417969,66.1338882446289 L479.21087646484375,67.85581970214844 L479.344482421875,69.39215087890625 L479.96966552734375,70.62397766113281 L481.0210266113281,71.44316864013672 L482.3963928222656,71.78207397460938 L483.9560852050781,71.60554504394531 L485.5467834472656,70.93317413330078 L486.9998779296875,69.83112335205078 L488.16607666015625,68.40589904785156 L488.91070556640625,66.78765869140625 L489.1647644042969,65.12348937988281 L488.9168701171875,63.55077362060547 L488.21673583984375,62.17970657348633 L487.1600341796875,61.08869552612305 L485.86395263671875,60.321903228759766 L484.4733581542969,59.914031982421875 L483.1780090332031,59.86285400390625 L482.1446838378906,60.11907196044922 L481.48919677734375,60.47480010986328 L481.1885681152344,60.768680572509766 M491.3812255859375,58.438446044921875 L491.2519836425781,58.64213562011719 L491.02972412109375,59.13982009887695 L490.7203369140625,60.007537841796875 L490.3851318359375,61.22500228881836 L490.07379150390625,62.706031799316406 L489.856689453125,64.34313201904297 L489.76776123046875,66.03089904785156 L489.8714599609375,67.67485046386719 L490.1766357421875,69.16357421875 L490.68963623046875,70.38664245605469 L491.400634765625,71.236572265625 L492.2897644042969,71.63105010986328 L493.29034423828125,71.52214050292969 L494.34808349609375,70.91268157958984 L495.38690185546875,69.84432983398438 L496.33697509765625,68.40991973876953 L497.15771484375,66.73017120361328 L497.8301696777344,64.93254089355469 L498.3335876464844,63.136104583740234 L498.6665344238281,61.44382095336914 L498.8501892089844,59.95848846435547 L498.9068603515625,58.75639724731445 L498.87994384765625,57.90145492553711 L498.8009033203125,57.43893051147461 L498.673095703125,57.413063049316406 L498.4971923828125,57.850128173828125 L498.27313232421875,58.77082061767578 L498.0126647949219,60.12664031982422 L497.75335693359375,61.83589553833008 L497.5313720703125,63.77581787109375 L497.38140869140625,65.83937072753906 L497.3309020996094,67.96241760253906 L497.37091064453125,70.05409240722656 L497.475341796875,71.9983901977539 L497.5871276855469,73.4719009399414 L497.66400146484375,74.34097290039062 M502.98748779296875,57.88336181640625 L503.0193786621094,57.984947204589844 L503.0643615722656,58.364051818847656 L503.08551025390625,59.161659240722656 L503.0185241699219,60.435272216796875 L502.81646728515625,62.10280990600586 L502.50323486328125,64.0423355102539 L502.12847900390625,66.09982299804688 L501.75823974609375,68.11320495605469 L501.4610900878906,69.9239730834961 L501.26043701171875,71.40444946289062 L501.157958984375,72.46649169921875 L501.1436767578125,73.0763931274414 L501.17767333984375,73.20027923583984 L501.2366943359375,72.82847595214844 L501.3430480957031,71.97115325927734 L501.5314025878906,70.68879699707031 L501.8515625,69.09928894042969 L502.33343505859375,67.33222198486328 L502.9690856933594,65.47425842285156 L503.7403259277344,63.622650146484375 L504.6238098144531,61.85945510864258 L505.59027099609375,60.2666015625 L506.60650634765625,58.93118667602539 L507.63470458984375,57.92642593383789 L508.6056823730469,57.267967224121094 L509.4560546875,56.952754974365234 L510.0635986328125,56.87495422363281 L510.402587890625,56.91067123413086 M526.5335693359375,50.11940383911133 L526.3829956054688,50.08393859863281 L526.121826171875,50.15882110595703 L525.7529296875,50.46465301513672 L525.32177734375,51.12068176269531 L524.8291015625,52.157958984375 L524.2923583984375,53.57544708251953 L523.7254028320312,55.338294982910156 L523.14111328125,57.39400100708008 L522.5576171875,59.658905029296875 L521.9965209960938,62.04368209838867 L521.4661254882812,64.43122863769531 L521.0032958984375,66.72647857666016 L520.6452026367188,68.8544692993164 L520.428955078125,70.74513244628906 L520.3956298828125,72.3402328491211 L520.5762329101562,73.5779037475586 L521.0009765625,74.36720275878906 L521.7123413085938,74.64095306396484 L522.7052001953125,74.36299896240234 L523.980224609375,73.47535705566406 L525.4285888671875,72.05599975585938 L526.89111328125,70.2985610961914 L528.042724609375,68.74191284179688 L528.7402954101562,67.71544647216797 M530.8428955078125,60.6269416809082 L530.752197265625,60.850677490234375 L530.6077880859375,61.360023498535156 L530.4104614257812,62.22076416015625 L530.1609497070312,63.413944244384766 L529.8386840820312,64.88922882080078 L529.4743041992188,66.56103515625 L529.1370239257812,68.3047866821289 L528.90185546875,69.95329284667969 L528.80908203125,71.33021545410156 L528.814453125,72.25399017333984 L528.8548583984375,72.72177124023438 M531.7635498046875,52.422386169433594 L531.692138671875,52.29587936401367 L531.6144409179688,52.16514587402344 L531.5546875,52.06987762451172 L531.5370483398438,52.04977035522461 M535.6721801757812,60.27277374267578 L535.60498046875,60.46623611450195 L535.513671875,60.941490173339844 L535.4142456054688,61.77042770385742 L535.3563232421875,62.943965911865234 L535.3516845703125,64.3868408203125 L535.3924560546875,66.02137756347656 L535.501220703125,67.7399673461914 L535.7058715820312,69.43861389160156 L536.01953125,70.9911117553711 L536.45556640625,72.279541015625 L536.9755859375,73.19863891601562 L537.560302734375,73.69467163085938 L538.202392578125,73.72021484375 L538.8887329101562,73.2549819946289 L539.6093139648438,72.30830383300781 L540.3350219726562,70.92351531982422 L541.0203247070312,69.19328308105469 L541.6453857421875,67.22862243652344 L542.2059326171875,65.1573715209961 L542.7014770507812,63.10746765136719 L543.1202392578125,61.24073028564453 L543.4398193359375,59.6977653503418 L543.6378784179688,58.66071319580078 L543.7247314453125,58.121681213378906 M543.4664916992188,70.4289779663086 L543.6871337890625,70.37890625 L544.167724609375,70.14247131347656 L544.93115234375,69.59281158447266 L545.901611328125,68.6558837890625 L546.971923828125,67.36933135986328 L547.9995727539062,65.83705139160156 L548.8646240234375,64.20843505859375 L549.5042114257812,62.64307403564453 L549.8583374023438,61.27187728881836 L549.886962890625,60.18986129760742 L549.576171875,59.46847915649414 L548.9253540039062,59.15208435058594 L547.99365234375,59.29570770263672 L546.8917236328125,59.95438766479492 L545.7596435546875,61.12813949584961 L544.7482299804688,62.73436737060547 L544.0200805664062,64.61647033691406 L543.7018432617188,66.56838989257812 L543.8860473632812,68.3913803100586 L544.6786499023438,69.91537475585938 L546.0529174804688,71.03349304199219 L547.8508911132812,71.71670532226562 L549.4955444335938,72.0381851196289 L550.6114501953125,72.12967681884766 M571.1297607421875,47.113365173339844 L571.026123046875,47.557533264160156 L570.8434448242188,48.44868469238281 L570.5835571289062,49.81429672241211 L570.2847900390625,51.55426025390625 L569.962890625,53.59313201904297 L569.6410522460938,55.867431640625 L569.3186645507812,58.32211685180664 L569.00537109375,60.899593353271484 L568.6802978515625,63.51277542114258 L568.336181640625,66.06111907958984 L567.9711303710938,68.43875885009766 L567.6045532226562,70.51615905761719 L567.2713012695312,72.15318298339844 L567.0064086914062,73.26765441894531 L566.8336181640625,73.87147521972656 L566.7481689453125,74.09376525878906 M563.1895751953125,60.96317672729492 L563.41015625,60.89708709716797 L563.9229736328125,60.822731018066406 L564.7901000976562,60.774959564208984 L565.998779296875,60.785072326660156 L567.4257202148438,60.82671356201172 L568.9061279296875,60.881988525390625 L570.0899658203125,60.92695999145508 L570.813232421875,60.95161056518555 M572.9061279296875,67.08735656738281 L573.1368408203125,67.0899887084961 L573.6187744140625,67.00438690185547 L574.37255859375,66.74686431884766 L575.3270874023438,66.26527404785156 L576.3882446289062,65.56319427490234 L577.4575805664062,64.67587280273438 L578.4237060546875,63.66468048095703 L579.19140625,62.59777069091797 L579.6698608398438,61.53913879394531 L579.8077392578125,60.578643798828125 L579.591064453125,59.78630828857422 L579.0480346679688,59.227169036865234 L578.2300415039062,58.95720291137695 L577.1915283203125,59.01716995239258 L576.0007934570312,59.42510986328125 L574.744384765625,60.19741439819336 L573.5288696289062,61.30884552001953 L572.4530639648438,62.7090950012207 L571.6268310546875,64.31654357910156 L571.1177368164062,66.0312271118164 L570.9886474609375,67.7458724975586 L571.271240234375,69.36344909667969 L571.9799194335938,70.77387237548828 L573.0830078125,71.88945770263672 L574.5154418945312,72.63259887695312 L576.1820678710938,72.96791076660156 L577.9595336914062,72.9169692993164 L579.7388305664062,72.48744201660156 L581.38134765625,71.7295913696289 L582.768310546875,70.74942779541016 L583.7239990234375,69.85659790039062 L584.2381591796875,69.24756622314453 M583.9606323242188,59.00251388549805 L584.0852661132812,59.117984771728516 L584.37060546875,59.42976379394531 L584.8465576171875,60.00316619873047 L585.5025024414062,60.85684585571289 L586.2996826171875,61.9501838684082 L587.1961059570312,63.253013610839844 L588.156982421875,64.72984313964844 L589.1598510742188,66.35108947753906 L590.1419677734375,68.0147476196289 L591.0271606445312,69.58726501464844 L591.66845703125,70.76847839355469 L592.025390625,71.45513153076172 M587.5736083984375,63.423583984375 L587.687255859375,63.41823196411133 L587.941650390625,63.500083923339844 L588.3500366210938,63.74165344238281 L588.8765869140625,64.20491790771484 L589.446044921875,64.90940856933594 L589.9957275390625,65.83078002929688 L590.4762573242188,66.93388366699219 L590.8466186523438,68.1717529296875 L591.087646484375,69.47561645507812 L591.214111328125,70.77201843261719 L591.2430419921875,72.0051040649414 L591.25341796875,73.05643463134766 L591.3046875,73.81327056884766 L591.424560546875,74.19849395751953 L591.566162109375,74.29017639160156 L591.6826782226562,74.22251892089844 M598.0487670898438,46.01252746582031 L598.0458374023438,45.88764190673828 L598.0616455078125,45.86900329589844 L598.0975341796875,46.135467529296875 L598.136962890625,46.862876892089844 L598.1288452148438,48.089176177978516 L598.0569458007812,49.76905059814453 L597.9041748046875,51.82730484008789 L597.6842041015625,54.191612243652344 L597.4197998046875,56.77256393432617 L597.130859375,59.47998046875 L596.8239135742188,62.22041320800781 L596.5195922851562,64.89518737792969 L596.2364501953125,67.36100006103516 L595.9953002929688,69.45947265625 L595.8291625976562,70.92594909667969 L595.7420654296875,71.72015380859375 M592.51904296875,58.95240020751953 L592.8683471679688,58.93716049194336 L593.6065063476562,58.944950103759766 L594.7486572265625,58.979854583740234 L596.2180786132812,58.99981689453125 L597.875,58.940364837646484 L599.531494140625,58.7747688293457 L600.8292846679688,58.57549285888672 L601.621826171875,58.41769027709961 M606.5997314453125,52.36783981323242 L606.6608276367188,52.4986572265625 L606.7593994140625,52.86109924316406 L606.859619140625,53.55574417114258 L606.890625,54.6252326965332 L606.810546875,56.06261444091797 L606.5872192382812,57.82590866088867 L606.25146484375,59.87297058105469 L605.850830078125,62.12779998779297 L605.4338989257812,64.4883804321289 L605.030517578125,66.84159851074219 L604.6732788085938,69.05033111572266 L604.385986328125,70.97057342529297 L604.2081909179688,72.51302337646484 L604.13623046875,73.59701538085938 L604.1551513671875,74.19012451171875 L604.2317504882812,74.30642700195312 L604.3377075195312,73.961669921875 L604.4712524414062,73.1769027709961 L604.64306640625,72.02639770507812 L604.8591918945312,70.58583068847656 L605.1608276367188,68.96198272705078 L605.590087890625,67.25463104248047 L606.1781005859375,65.56266784667969 L606.932373046875,63.95784378051758 L607.806396484375,62.53717041015625 L608.7310791015625,61.39102554321289 L609.6375732421875,60.60881423950195 L610.4552001953125,60.251346588134766 L611.1309814453125,60.37206268310547 L611.6256103515625,60.9611930847168 L611.9156494140625,61.98481750488281 L612.005615234375,63.36277389526367 L611.9153442382812,64.96929168701172 L611.6807861328125,66.65773010253906 L611.3673095703125,68.30667877197266 L611.0460815429688,69.77172088623047 L610.7901611328125,70.93617248535156 L610.6298217773438,71.72862243652344 L610.557861328125,72.15308380126953 L610.5385131835938,72.3023681640625 M614.7117919921875,66.48011779785156 L614.9811401367188,66.31713104248047 L615.487548828125,65.96601104736328 L616.2238159179688,65.38499450683594 L617.0951538085938,64.5993881225586 L618.02685546875,63.6507453918457 L618.9229736328125,62.624752044677734 L619.6820068359375,61.6102294921875 L620.2037353515625,60.694828033447266 L620.4039306640625,59.949798583984375 L620.2286376953125,59.43476104736328 L619.6900634765625,59.206085205078125 L618.8382568359375,59.333492279052734 L617.776123046875,59.87296676635742 L616.6365356445312,60.83671569824219 L615.55224609375,62.194725036621094 L614.6339111328125,63.854129791259766 L613.9929809570312,65.69615936279297 L613.6857299804688,67.58683776855469 L613.7564086914062,69.37924194335938 L614.2075805664062,70.92603302001953 L614.9979858398438,72.12371063232422 L616.056884765625,72.89591979980469 L617.3075561523438,73.23404693603516 L618.6873779296875,73.08837127685547 L620.111083984375,72.46870422363281 L621.4630737304688,71.44744873046875 L622.492919921875,70.4261474609375 L623.1002197265625,69.6830062866211 M624.916259765625,62.45001983642578 L624.8995361328125,62.45662307739258 L624.8550415039062,62.64183044433594 L624.7549438476562,63.16121292114258 L624.5823974609375,64.12672424316406 L624.31494140625,65.50253295898438 L623.978515625,67.14889526367188 L623.6104736328125,68.86224365234375 L623.2642822265625,70.43850708007812 L622.9635009765625,71.71277618408203 L622.722900390625,72.58970642089844 L622.5259399414062,73.00517272949219 L622.3743896484375,72.9385757446289 L622.2667236328125,72.39292907714844 L622.2333984375,71.40373229980469 L622.298583984375,70.05563354492188 L622.5032958984375,68.481201171875 L622.8714599609375,66.80638885498047 L623.41357421875,65.12866973876953 L624.0997924804688,63.544246673583984 L624.8733520507812,62.158870697021484 L625.6343994140625,61.07959747314453 L626.2845458984375,60.370384216308594 L626.740478515625,60.03643798828125 L626.9815673828125,59.9827995300293 L627.0453491210938,60.10224533081055 L627.0072021484375,60.29629898071289 L626.9339599609375,60.48960876464844 L626.870849609375,60.6212043762207 L626.8265380859375,60.69148254394531 L626.8010864257812,60.70881652832031 L626.788818359375,60.70256805419922 M628.801025390625,66.72647094726562 L628.9609985351562,66.77427673339844 L629.2973022460938,66.77083587646484 L629.8353271484375,66.61680603027344 L630.5661010742188,66.20690155029297 L631.47119140625,65.51327514648438 L632.4849853515625,64.568603515625 L633.5185546875,63.4648551940918 L634.475341796875,62.30961227416992 L635.236572265625,61.21100616455078 L635.7159423828125,60.24348449707031 L635.8397216796875,59.469417572021484 L635.5433349609375,58.929115295410156 L634.8067626953125,58.672611236572266 L633.6942138671875,58.753578186035156 L632.3220825195312,59.2177848815918 L630.8521118164062,60.05912399291992 L629.4637451171875,61.240631103515625 L628.3151245117188,62.68748092651367 L627.5311279296875,64.30671691894531 L627.2217407226562,66.02115631103516 L627.460205078125,67.74613189697266 L628.2571411132812,69.38650512695312 L629.56982421875,70.87091064453125 L631.35693359375,72.11347198486328 L633.5845947265625,73.05597686767578 L635.6065063476562,73.6532974243164 L637.029052734375,73.9445571899414 " fill="none" stroke="black" stroke-linecap="round" stroke-width="2" /></svg>