<?xml version="1.0" encoding="utf-8" ?>
<svg baseProfile="full" height="100%" version="1.1" viewBox="0,0,1000,120" width="100%" xmlns="http://www.w3.org/2000/svg" xmlns:ev="http://www.w3.org/2001/xml-events" xmlns:xlink="http://www.w3.org/1999/xlink"><defs /><rect fill="white" height="120" width="1000" x="0" y="0" /><path d="M0,0 M429.09454345703125,66.21841430664062 L429.4347229003906,66.04192352294922 L430.08624267578125,65.63748168945312 L431.05621337890625,64.94780731201172 L432.22808837890625,63.986083984375 L433.501220703125,62.79928970336914 L434.73919677734375,61.463748931884766 L435.8365783691406,60.042484283447266 L436.6775207519531,58.601810455322266 L437.20843505859375,57.19646072387695 L437.38330078125,55.88079071044922 L437.199462890625,54.71870422363281 L436.6744384765625,53.783721923828125 L435.8480224609375,53.13577651977539 L434.7601623535156,52.835174560546875 L433.508056640625,52.92314147949219 L432.1784973144531,53.428550720214844 L430.87567138671875,54.36224365234375 L429.7008972167969,55.7000846862793 L428.7380676269531,57.36378860473633 L428.06671142578125,59.237037658691406 L427.76641845703125,61.177154541015625 L427.8828430175781,63.057498931884766 L428.42962646484375,64.78559875488281 L429.3778076171875,66.27826690673828 L430.6632080078125,67.45504760742188 L432.21881103515625,68.24653625488281 L433.94781494140625,68.59183502197266 L435.7680358886719,68.45185852050781 L437.5572814941406,67.89838409423828 L439.17230224609375,67.06695556640625 L440.3524169921875,66.28404998779297 L441.0252380371094,65.7574234008789 M441.7950744628906,57.867286682128906 L441.79144287109375,57.93927764892578 L441.750244140625,58.2166748046875 L441.6380615234375,58.820716857910156 L441.42010498046875,59.80807113647461 L441.10174560546875,61.13471984863281 L440.68719482421875,62.67763137817383 L440.2190246582031,64.27381134033203 L439.7453918457031,65.76273345947266 L439.3235778808594,67.01934814453125 L438.9833068847656,67.94713592529297 L438.7708435058594,68.48165130615234 L438.69195556640625,68.5733413696289 L438.75592041015625,68.1922836303711 L438.9854736328125,67.3350601196289 L439.4256286621094,66.07230377197266 L440.0953674316406,64.51715850830078 L441.02349853515625,62.81122970581055 L442.1930236816406,61.095458984375 L443.55523681640625,59.498661041259766 L445.024658203125,58.13217544555664 L446.5164489746094,57.11040496826172 L447.91107177734375,56.52325439453125 L449.1131591796875,56.43379592895508 L450.05194091796875,56.86882400512695 L450.71124267578125,57.81431579589844 L451.0767517089844,59.19991683959961 L451.18292236328125,60.919429779052734 L451.0554504394531,62.813411712646484 L450.76312255859375,64.70262908935547 L450.3963928222656,66.4222412109375 L450.0875244140625,67.85264587402344 L449.9705505371094,68.85014343261719 L450.1339111328125,69.35313415527344 L450.563232421875,69.36027526855469 L451.05181884765625,69.10099792480469 L451.4229736328125,68.80330657958984 M463.3300476074219,60.071510314941406 L462.95184326171875,59.661190032958984 L462.2393798828125,59.115352630615234 L461.1843566894531,58.620121002197266 L459.893798828125,58.431434631347656 L458.44744873046875,58.6136474609375 L456.9689636230469,59.160343170166016 L455.5987854003906,60.00995635986328 L454.486572265625,61.10251998901367 L453.74041748046875,62.36085891723633 L453.42236328125,63.69529342651367 L453.54656982421875,65.00912475585938 L454.0799560546875,66.18672943115234 L454.95819091796875,67.11454010009766 L456.0906982421875,67.69342041015625 L457.3568115234375,67.86666870117188 L458.6480712890625,67.6222915649414 L459.87933349609375,66.9913101196289 L460.98321533203125,66.03036499023438 L461.9082946777344,64.8258285522461 L462.6187744140625,63.48042678833008 L463.0908508300781,62.12621307373047 L463.32781982421875,60.90044403076172 L463.3675537109375,59.89170837402344 L463.2631530761719,59.16856384277344 L463.0597839355469,58.783023834228516 L462.8092041015625,58.775970458984375 L462.55169677734375,59.20701599121094 L462.3143615722656,60.11747741699219 L462.12103271484375,61.479068756103516 L461.9505920410156,63.2412223815918 L461.7552490234375,65.33544158935547 L461.48687744140625,67.68798828125 L461.08056640625,70.22745513916016 L460.4879150390625,72.86795806884766 L459.65228271484375,75.48323059082031 L458.525634765625,77.93050384521484 L457.12255859375,80.05522918701172 L455.53570556640625,81.72288513183594 L453.89666748046875,82.82707214355469 L452.37286376953125,83.31397247314453 L451.0804138183594,83.15711212158203 L450.1026306152344,82.37207794189453 L449.4947814941406,81.02570343017578 L449.38177490234375,79.17202758789062 L449.79608154296875,76.96630859375 L450.6828308105469,74.6405029296875 L451.63677978515625,72.74588012695312 L452.34967041015625,71.56088256835938 M467.43048095703125,59.042144775390625 L467.35137939453125,59.27490234375 L467.21649169921875,59.801212310791016 L467.01995849609375,60.66929244995117 L466.7903747558594,61.82353210449219 L466.5472717285156,63.15911865234375 L466.3229675292969,64.55279541015625 L466.1695861816406,65.89103698730469 L466.094482421875,67.02540588378906 L466.07659912109375,67.82046508789062 L466.0920104980469,68.20338439941406 L466.113037109375,68.2734603881836 L466.1226501464844,68.18905639648438 M467.50701904296875,50.80540084838867 L467.47088623046875,50.82589340209961 L467.408935546875,50.8802490234375 L467.3260498046875,50.96469497680664 L467.276611328125,51.075523376464844 L467.2972412109375,51.1890754699707 L467.4064636230469,51.3234977722168 L467.5503234863281,51.44776916503906 L467.6710205078125,51.54029083251953 M470.4952392578125,58.29290771484375 L470.4798583984375,58.775390625 L470.44049072265625,59.642669677734375 L470.3392333984375,60.8488883972168 L470.14459228515625,62.20976257324219 L469.84564208984375,63.63548278808594 L469.468505859375,65.01780700683594 L469.0830993652344,66.2552490234375 L468.76513671875,67.24928283691406 L468.54156494140625,67.92030334472656 L468.4302673339844,68.2132339477539 L468.43408203125,68.12506866455078 L468.5626525878906,67.63690948486328 L468.83612060546875,66.74064636230469 L469.2519226074219,65.4886245727539 L469.78485107421875,63.98975372314453 L470.424560546875,62.379859924316406 L471.1712646484375,60.79900360107422 L472.03692626953125,59.34333801269531 L473.0387878417969,58.07195281982422 L474.181884765625,57.04322814941406 L475.43408203125,56.31655502319336 L476.736572265625,55.947593688964844 L477.99859619140625,55.9865608215332 L479.09356689453125,56.45503234863281 L479.90899658203125,57.33906173706055 L480.3838195800781,58.58428955078125 L480.5040283203125,60.09141540527344 L480.3270263671875,61.749725341796875 L479.9633483886719,63.40499496459961 L479.527099609375,64.90409851074219 L479.1669006347656,65.99951171875 L478.9501953125,66.61951446533203 M481.6463928222656,63.394527435302734 L481.99639892578125,63.2598991394043 L482.6875915527344,62.96221160888672 L483.7215881347656,62.451805114746094 L484.96954345703125,61.725624084472656 L486.28363037109375,60.80937576293945 L487.51287841796875,59.773921966552734 L488.51861572265625,58.688377380371094 L489.1914978027344,57.622947692871094 L489.4681396484375,56.62716293334961 L489.3322448730469,55.756202697753906 L488.7983093261719,55.099037170410156 L487.9134521484375,54.7778205871582 L486.74114990234375,54.89152908325195 L485.37860107421875,55.504676818847656 L483.9505920410156,56.602561950683594 L482.60687255859375,58.105628967285156 L481.5083923339844,59.89313507080078 L480.7868347167969,61.828369140625 L480.5445861816406,63.759098052978516 L480.8276672363281,65.53826141357422 L481.6289367675781,67.02075958251953 L482.8963317871094,68.0854263305664 L484.5307922363281,68.6582260131836 L486.3863220214844,68.68559265136719 L488.33203125,68.16035461425781 L490.23724365234375,67.09514617919922 L492.00921630859375,65.5530014038086 L493.5628967285156,63.654457092285156 L494.7961120605469,61.5836181640625 L495.6231689453125,59.51638412475586 L496.0085144042969,57.61426544189453 L495.95556640625,55.968318939208984 L495.52947998046875,54.65186309814453 L494.8014831542969,53.72948455810547 L493.8489990234375,53.28861999511719 L492.76422119140625,53.408851623535156 L491.6654968261719,54.14891815185547 L490.6691589355469,55.48630142211914 L489.88165283203125,57.32595443725586 L489.3900451660156,59.49988555908203 L489.2566833496094,61.807281494140625 L489.5114440917969,64.04470825195312 L490.15252685546875,66.0584945678711 L491.1875305175781,67.70448303222656 L492.52447509765625,68.88245391845703 L494.0309753417969,69.56881713867188 L495.3059997558594,69.85897064208984 L496.127685546875,69.9073715209961 M501.55096435546875,56.12221908569336 L501.55401611328125,56.2052001953125 L501.52679443359375,56.532920837402344 L501.4333801269531,57.239501953125 L501.2464599609375,58.389686584472656 L500.9710998535156,59.925968170166016 L500.62835693359375,61.74867630004883 L500.2557373046875,63.73047637939453 L499.9018859863281,65.71031188964844 L499.60894775390625,67.50637817382812 L499.4018249511719,68.96870422363281 L499.28314208984375,69.99141693115234 L499.2375793457031,70.52073669433594 L499.2348937988281,70.54161834716797 L499.2559814453125,70.0388412475586 L499.3188781738281,69.00531768798828 L499.4588623046875,67.50957489013672 L499.726806640625,65.67145538330078 L500.18218994140625,63.6287956237793 L500.8379211425781,61.521060943603516 L501.6666564941406,59.4655647277832 L502.593994140625,57.578163146972656 L503.53143310546875,55.9818000793457 L504.39373779296875,54.77425003051758 L505.118896484375,53.99932861328125 L505.6614685058594,53.620391845703125 L506.0069885253906,53.52665710449219 L506.17327880859375,53.57247543334961 L506.2228698730469,53.64283752441406 M509.9899597167969,54.616390228271484 L510.01885986328125,54.74333953857422 L510.02783203125,55.09339141845703 L509.9718933105469,55.77664566040039 L509.8012390136719,56.84839630126953 L509.50823974609375,58.31250762939453 L509.09490966796875,60.10411071777344 L508.5903015136719,62.13111877441406 L508.06512451171875,64.27725219726562 L507.59130859375,66.40806579589844 L507.22296142578125,68.38450622558594 L506.9964294433594,70.06593322753906 L506.92315673828125,71.20237731933594 L507.00048828125,71.6260986328125 L507.2121887207031,71.28945922851562 L507.4527587890625,70.59545135498047 L507.6378479003906,69.94131469726562 M509.67364501953125,46.64048767089844 L509.69488525390625,46.23285675048828 L509.74725341796875,45.72508239746094 L509.8104248046875,45.282875061035156 L509.86407470703125,45.07194137573242 M513.8670654296875,56.904876708984375 L513.7782592773438,57.544498443603516 L513.6097412109375,58.65392303466797 L513.3740844726562,60.16651153564453 L513.1170654296875,61.85480880737305 L512.8707275390625,63.63151550292969 L512.6489868164062,65.39895629882812 L512.4539794921875,67.05754852294922 L512.2947998046875,68.46809387207031 L512.1783447265625,69.546142578125 L512.1204833984375,70.22907257080078 L512.107421875,70.49962615966797 L512.12255859375,70.34059143066406 L512.1871337890625,69.7344741821289 L512.3364868164062,68.66549682617188 L512.61767578125,67.2111587524414 L513.110595703125,65.46044921875 L513.83984375,63.526065826416016 L514.794921875,61.49851989746094 L515.958740234375,59.49147033691406 L517.2435302734375,57.633602142333984 L518.522216796875,56.10816192626953 L519.699462890625,55.07682800292969 L520.66357421875,54.654212951660156 L521.35595703125,54.868534088134766 L521.7807006835938,55.70927429199219 L521.9341430664062,57.10700225830078 L521.82958984375,58.95144271850586 L521.531982421875,61.11427688598633 L521.1276245117188,63.37832260131836 L520.7362670898438,65.51026153564453 L520.4642333984375,67.11225891113281 L520.330078125,68.04093170166016 M532.61376953125,59.034976959228516 L532.2347412109375,58.61016845703125 L531.508544921875,58.05586242675781 L530.4298095703125,57.58792495727539 L529.1235961914062,57.50470733642578 L527.7081298828125,57.896080017089844 L526.3614501953125,58.76357650756836 L525.251220703125,59.98611831665039 L524.5132446289062,61.410404205322266 L524.2205810546875,62.843536376953125 L524.3746948242188,64.11074829101562 L524.910888671875,65.0648193359375 L525.748291015625,65.61174774169922 L526.7997436523438,65.71012878417969 L527.96826171875,65.35602569580078 L529.1502685546875,64.5953140258789 L530.24072265625,63.51806640625 L531.1292724609375,62.219486236572266 L531.7498779296875,60.85908889770508 L532.0960083007812,59.629032135009766 L532.2182006835938,58.66337203979492 L532.189697265625,58.06901168823242 L532.082763671875,57.87236404418945 L531.9405517578125,58.04104995727539 L531.7882080078125,58.59660720825195 L531.6318359375,59.57206344604492 L531.4786987304688,60.94292068481445 L531.3182373046875,62.68384552001953 L531.1229248046875,64.71483612060547 L530.83837890625,66.94509887695312 L530.4149169921875,69.3128890991211 L529.7963256835938,71.74868774414062 L528.9527587890625,74.15332794189453 L527.86181640625,76.42584228515625 L526.536865234375,78.45706939697266 L524.9962158203125,80.13612365722656 L523.315185546875,81.37712097167969 L521.593994140625,82.1118392944336 L519.9739379882812,82.29650115966797 L518.5643310546875,81.95332336425781 L517.568603515625,81.06364440917969 L517.11181640625,79.68746185302734 L517.2344970703125,77.97270965576172 L517.6524047851562,76.43708801269531 L518.088623046875,75.39649963378906 M552.2169189453125,55.8560791015625 L552.1798095703125,55.87064743041992 L552.0546875,56.02177429199219 L551.7939453125,56.450828552246094 L551.3682861328125,57.28326416015625 L550.8131103515625,58.568267822265625 L550.21044921875,60.24614715576172 L549.6575927734375,62.18630599975586 L549.2417602539062,64.224853515625 L549.0247192382812,66.20120239257812 L549.01611328125,67.97322082519531 L549.2294921875,69.43396759033203 L549.651611328125,70.47762298583984 L550.2424926757812,71.03209686279297 L550.958251953125,71.05496215820312 L551.7572631835938,70.5350112915039 L552.59033203125,69.49415588378906 L553.4364013671875,68.0111083984375 L554.2618408203125,66.19182586669922 L555.0263671875,64.18011474609375 L555.7051391601562,62.114768981933594 L556.2767944335938,60.14859390258789 L556.71435546875,58.43547058105469 L557.0159912109375,57.08854293823242 L557.1798706054688,56.20220184326172 L557.21337890625,55.8685417175293 L557.1419677734375,56.126060485839844 L556.9631958007812,56.9963493347168 L556.6656494140625,58.45793151855469 L556.2669067382812,60.354148864746094 L555.81298828125,62.49355697631836 L555.363037109375,64.69306182861328 L555.0140380859375,66.77837371826172 L554.8222045898438,68.5942611694336 L554.8114013671875,70.04296875 L554.9049072265625,70.98851013183594 L555.02099609375,71.46129608154297 M560.724853515625,56.15787124633789 L560.7286376953125,56.22634506225586 L560.6810302734375,56.52824020385742 L560.5408935546875,57.19274139404297 L560.287841796875,58.26943588256836 L559.958251953125,59.69176483154297 L559.6043701171875,61.3513069152832 L559.2774658203125,63.13300323486328 L559.0096435546875,64.9065933227539 L558.817626953125,66.52864074707031 L558.69580078125,67.86725616455078 L558.62939453125,68.82577514648438 L558.5841674804688,69.34037780761719 L558.5426025390625,69.37385559082031 L558.5083618164062,68.90111541748047 L558.537353515625,67.90525817871094 L558.685302734375,66.45123291015625 L559.002685546875,64.66648864746094 L559.4840087890625,62.6956672668457 L560.1112060546875,60.68179702758789 L560.8500366210938,58.75711441040039 L561.686279296875,57.01715850830078 L562.5812377929688,55.57548904418945 L563.5028076171875,54.532649993896484 L564.3837890625,53.96417999267578 L565.16552734375,53.91328048706055 L565.7965698242188,54.387935638427734 L566.245849609375,55.353248596191406 L566.4739379882812,56.75332260131836 L566.4639892578125,58.511505126953125 L566.2265014648438,60.55236053466797 L565.83056640625,62.79916000366211 L565.3878784179688,65.09230041503906 L565.0198974609375,67.19224548339844 L564.79345703125,68.8572769165039 L564.6995849609375,69.90430450439453 L564.685302734375,70.37830352783203 M570.0076904296875,55.73642349243164 L570.016357421875,55.89939498901367 L569.979736328125,56.38386917114258 L569.849609375,57.310420989990234 L569.5907592773438,58.68423080444336 L569.201416015625,60.40345764160156 L568.7392578125,62.33884048461914 L568.2733154296875,64.34080505371094 L567.9019775390625,66.25013732910156 L567.70166015625,67.8829345703125 L567.695556640625,69.08135223388672 L567.7937622070312,69.78195190429688 L567.9114990234375,70.0745849609375 M570.1576538085938,48.43736267089844 L570.113037109375,48.464515686035156 L570.0770263671875,48.51823043823242 L570.06005859375,48.59318542480469 L570.071044921875,48.66267395019531 L570.0859375,48.705684661865234 M574.390625,54.06730651855469 L574.4170532226562,54.11111831665039 L574.429931640625,54.321205139160156 L574.3970947265625,54.819366455078125 L574.2937622070312,55.688819885253906 L574.12841796875,56.94065856933594 L573.912109375,58.529964447021484 L573.6649169921875,60.39047622680664 L573.4264526367188,62.43061065673828 L573.2465209960938,64.5405044555664 L573.17333984375,66.56895446777344 L573.2229614257812,68.36925506591797 L573.372802734375,69.79023742675781 L573.604248046875,70.71159362792969 L573.9237060546875,71.04157257080078 L574.3546752929688,70.7273941040039 L574.9149169921875,69.74791717529297 L575.5889892578125,68.18223571777344 L576.3203735351562,66.16622161865234 L577.0634765625,63.889373779296875 L577.7835693359375,61.534507751464844 L578.447998046875,59.24076843261719 L579.042236328125,57.09247589111328 L579.5677490234375,55.165863037109375 L580.0244140625,53.538978576660156 L580.4174194335938,52.302146911621094 L580.746337890625,51.5043830871582 L580.9749755859375,51.10244369506836 L581.0985717773438,50.97337341308594 M580.81982421875,64.13078308105469 L581.3651733398438,63.789833068847656 L582.2692260742188,63.0979118347168 L583.4243774414062,62.03116989135742 L584.5892944335938,60.68471145629883 L585.66064453125,59.15830993652344 L586.5484619140625,57.60091781616211 L587.1837768554688,56.144107818603516 L587.4949340820312,54.89024353027344 L587.4384765625,53.938316345214844 L587.0137939453125,53.35485076904297 L586.2770385742188,53.20403289794922 L585.3224487304688,53.55622863769531 L584.2718505859375,54.456886291503906 L583.2579345703125,55.87905502319336 L582.3907470703125,57.740447998046875 L581.7529296875,59.883235931396484 L581.404541015625,62.13746643066406 L581.3735961914062,64.34007263183594 L581.672119140625,66.3511962890625 L582.277099609375,68.04742431640625 L583.1339111328125,69.32201385498047 L584.1856689453125,70.06780242919922 L585.3780517578125,70.21588897705078 L586.6488647460938,69.72138214111328 L587.9196166992188,68.60276794433594 L589.1046142578125,66.96217346191406 L590.1387939453125,64.95301055908203 L590.988037109375,62.746299743652344 L591.6348266601562,60.52212905883789 L592.081787109375,58.42906188964844 L592.319091796875,56.60163497924805 L592.359619140625,55.154998779296875 L592.2496337890625,54.184207916259766 L592.046875,53.75395584106445 L591.7950439453125,53.90303039550781 L591.531982421875,54.63788986206055 L591.2620849609375,55.92476272583008 L590.9864501953125,57.675785064697266 L590.71240234375,59.77934646606445 L590.4551391601562,62.101680755615234 L590.22216796875,64.48880004882812 L590.0242919921875,66.7618179321289 L589.870849609375,68.72531127929688 L589.7716674804688,70.21177673339844 L589.7220458984375,71.12053680419922 L589.7205810546875,71.42464447021484 L589.7432861328125,71.15432739257812 L589.775390625,70.34729766845703 L589.818359375,69.06500244140625 L589.8872680664062,67.40900421142578 L589.9937133789062,65.51336669921875 L590.1619873046875,63.51045227050781 L590.3880004882812,61.51998519897461 L590.663330078125,59.61777877807617 L590.9698486328125,57.86346435546875 L591.29638671875,56.285308837890625 L591.6301879882812,54.9326171875 L591.9674682617188,53.83651351928711 L592.240478515625,53.092281341552734 L592.4154052734375,52.6943359375 M600.2039794921875,53.54181671142578 L600.00341796875,53.51224899291992 L599.5626220703125,53.54148483276367 L598.8524169921875,53.71513748168945 L597.937744140625,54.12000274658203 L596.9352416992188,54.78036117553711 L595.984619140625,55.67543411254883 L595.2242431640625,56.75463104248047 L594.773681640625,57.952537536621094 L594.7193603515625,59.209754943847656 L595.0921630859375,60.48271942138672 L595.85400390625,61.735843658447266 L596.88330078125,62.95040512084961 L598.0152587890625,64.12285614013672 L599.076416015625,65.24677276611328 L599.9014892578125,66.29984283447266 L600.3706665039062,67.25171661376953 L600.3917236328125,68.06208038330078 L599.9296264648438,68.71036529541016 L599.0289306640625,69.17768859863281 L597.8194580078125,69.44676971435547 L596.4801025390625,69.4580078125 L595.22900390625,69.21538543701172 L594.2203369140625,68.7356185913086 L593.570068359375,68.2335433959961 L593.2537841796875,67.8638916015625 M603.9361572265625,59.20197296142578 L603.8994140625,59.63114929199219 L603.8027954101562,60.414669036865234 L603.6223754882812,61.52787399291992 L603.3548583984375,62.82464599609375 L603.04150390625,64.21439361572266 L602.7235717773438,65.5931396484375 L602.4591064453125,66.88136291503906 L602.296875,67.9319839477539 L602.249755859375,68.61604309082031 L602.2921752929688,68.87214660644531 L602.3739624023438,68.83641052246094 L602.4396362304688,68.68093872070312 M604.5087890625,46.700313568115234 L604.4794921875,46.751869201660156 L604.448974609375,46.906761169433594 L604.426513671875,47.103431701660156 L604.421630859375,47.28034973144531 M611.6094970703125,45.0 L611.5660400390625,45.20445251464844 L611.4317626953125,45.74565124511719 L611.173095703125,46.74506759643555 L610.7994995117188,48.22312927246094 L610.3554077148438,50.121063232421875 L609.90966796875,52.353851318359375 L609.494384765625,54.82136154174805 L609.0969848632812,57.44972229003906 L608.6890869140625,60.16325759887695 L608.2452392578125,62.867820739746094 L607.7713623046875,65.4417724609375 L607.3248901367188,67.74502563476562 L606.9583129882812,69.61663055419922 L606.710205078125,70.95880889892578 L606.5841064453125,71.7429428100586 L606.541748046875,72.08259582519531 M605.8719482421875,59.72218704223633 L606.0020141601562,59.731658935546875 L606.32763671875,59.82379913330078 L606.8997802734375,60.050479888916016 L607.7368774414062,60.406761169433594 L608.7662963867188,60.81109619140625 L609.8947143554688,61.169105529785156 L610.8356323242188,61.40483474731445 L611.4366455078125,61.51285171508789 M613.0270385742188,57.74932098388672 L613.0007934570312,57.91929626464844 L612.9554443359375,58.30982971191406 L612.898681640625,58.98434829711914 L612.84375,59.93971633911133 L612.8172607421875,61.135562896728516 L612.845947265625,62.50822448730469 L612.9636840820312,63.95747375488281 L613.2162475585938,65.38130187988281 L613.636474609375,66.67108917236328 L614.2349853515625,67.73005676269531 L615.002685546875,68.47783660888672 L615.9052734375,68.85575866699219 L616.8876953125,68.81192016601562 L617.88818359375,68.32908630371094 L618.8394775390625,67.41954803466797 L619.6906127929688,66.16275024414062 L620.3987426757812,64.6750259399414 L620.9619140625,63.093910217285156 L621.3681640625,61.528846740722656 L621.6156005859375,60.079097747802734 L621.7141723632812,58.83717346191406 L621.6923828125,57.88687515258789 L621.5821533203125,57.24253845214844 L621.4512939453125,56.90879821777344 L621.3115234375,56.86195373535156 L621.16943359375,57.13451385498047 L621.01611328125,57.82099151611328 L620.8416748046875,59.004695892333984 L620.64013671875,60.682003021240234 L620.4322509765625,62.815189361572266 L620.1980590820312,65.31937408447266 L619.9134521484375,68.11636352539062 L619.53564453125,71.14461517333984 L619.0235595703125,74.3193588256836 L618.3436889648438,77.53226470947266 L617.4970703125,80.67718505859375 L616.486328125,83.63874053955078 L615.3424072265625,86.29962158203125 L614.1044921875,88.54666900634766 L612.82470703125,90.26589965820312 L611.5343017578125,91.35739135742188 L610.2738037109375,91.76919555664062 L609.0617065429688,91.49793243408203 L607.9525146484375,90.6047592163086 L607.0234375,89.19950866699219 L606.3809814453125,87.41902160644531 L606.1175537109375,85.39144134521484 L606.389404296875,83.18370819091797 L607.3199462890625,80.78606414794922 L608.4515380859375,78.74405670166016 L609.4016723632812,77.36212158203125 " fill="none" stroke="black" stroke-linecap="round" stroke-width="2" /></svg>