<?xml version="1.0" encoding="utf-8" ?>
<svg baseProfile="full" height="100%" version="1.1" viewBox="0,0,1000,180" width="100%" xmlns="http://www.w3.org/2000/svg" xmlns:ev="http://www.w3.org/2001/xml-events" xmlns:xlink="http://www.w3.org/1999/xlink"><defs /><rect fill="white" height="180" width="1000" x="0" y="0" /><path d="M0,0 M385.140869140625,60.38273239135742 L385.1476745605469,60.43742370605469 L385.15130615234375,60.66135787963867 L385.13726806640625,61.21383285522461 L385.0792541503906,62.24436950683594 L384.9511413574219,63.829307556152344 L384.7436218261719,65.921630859375 L384.474609375,68.38554382324219 L384.19293212890625,71.0480728149414 L383.94036865234375,73.75281524658203 L383.7439880371094,76.38539123535156 L383.600830078125,78.84144592285156 L383.50921630859375,80.96289825439453 L383.4671936035156,82.59024047851562 L383.4751281738281,83.65089416503906 L383.5066223144531,84.16736602783203 L383.517578125,84.12452697753906 L383.45281982421875,83.56420135498047 L383.2878112792969,82.49095153808594 L383.09429931640625,81.33191680908203 L382.9387512207031,80.43760681152344 M382.0665588378906,59.486534118652344 L382.09124755859375,59.54867172241211 L382.20233154296875,59.815589904785156 L382.4524230957031,60.431400299072266 L382.875,61.50599670410156 L383.4471435546875,63.05707550048828 L384.11395263671875,65.01602172851562 L384.8081359863281,67.27027893066406 L385.5200500488281,69.6757583618164 L386.25958251953125,72.08951568603516 L387.06866455078125,74.41145324707031 L387.93701171875,76.54541015625 L388.80621337890625,78.39033508300781 L389.6089172363281,79.86323547363281 L390.27520751953125,80.87764739990234 L390.77142333984375,81.39889526367188 L391.13848876953125,81.45613098144531 L391.4175720214844,81.06961822509766 L391.6526794433594,80.22845458984375 L391.87249755859375,78.91490173339844 L392.0537414550781,77.12821197509766 L392.1642150878906,74.93279266357422 L392.2003173828125,72.45331573486328 L392.1641540527344,69.82408905029297 L392.0867919921875,67.16372680664062 L392.0123291015625,64.5665054321289 L391.9833984375,62.1029167175293 L392.0201416015625,59.816551208496094 L392.1248474121094,57.74209976196289 L392.26190185546875,55.94690704345703 L392.3886413574219,54.510345458984375 L392.47430419921875,53.55834197998047 L392.5155944824219,53.07539367675781 M400.3258361816406,68.72596740722656 L400.2610778808594,68.58052825927734 L400.11138916015625,68.32238006591797 L399.8300476074219,68.0079116821289 L399.36981201171875,67.77359771728516 L398.7094421386719,67.78794860839844 L397.8653259277344,68.21172332763672 L396.88800048828125,69.15496826171875 L395.9022521972656,70.6568374633789 L395.04486083984375,72.64895629882812 L394.44244384765625,74.95428466796875 L394.2018737792969,77.3309326171875 L394.3575744628906,79.51861572265625 L394.8701477050781,81.296142578125 L395.68304443359375,82.53056335449219 L396.7104797363281,83.14421081542969 L397.8760986328125,83.10542297363281 L399.0999450683594,82.40369415283203 L400.28192138671875,81.06208038330078 L401.30718994140625,79.1678237915039 L402.06805419921875,76.9116439819336 L402.4942321777344,74.55061340332031 L402.56396484375,72.36742401123047 L402.31793212890625,70.58384704589844 L401.85345458984375,69.30294036865234 L401.306884765625,68.51287078857422 L400.80059814453125,68.12588500976562 L400.4507751464844,67.99427032470703 L400.27081298828125,67.9864730834961 M406.3620910644531,66.16368103027344 L406.32916259765625,66.5467529296875 L406.2331848144531,67.35491943359375 L406.0621032714844,68.66100311279297 L405.84228515625,70.40768432617188 L405.6292419433594,72.5141372680664 L405.4747619628906,74.85382080078125 L405.42669677734375,77.25684356689453 L405.5105895996094,79.5059585571289 L405.7138671875,81.40159606933594 L405.9944152832031,82.79744720458984 L406.3042297363281,83.61387634277344 L406.6095886230469,83.81607818603516 L406.9375915527344,83.35978698730469 L407.330810546875,82.19084167480469 L407.8301086425781,80.34310913085938 L408.4451904296875,77.97694396972656 L409.1493225097656,75.37064361572266 L409.8721923828125,72.84101104736328 L410.54693603515625,70.66947937011719 L411.0747375488281,68.99303436279297 L411.4189453125,67.85670471191406 L411.593017578125,67.27348327636719 L411.6363525390625,67.2656021118164 L411.620361328125,67.87798309326172 L411.6100769042969,69.16264343261719 L411.63153076171875,71.0421142578125 L411.7327880859375,73.33280181884766 L411.94720458984375,75.7883529663086 L412.26666259765625,78.13145446777344 L412.6993408203125,80.13523864746094 L413.20849609375,81.66461181640625 L413.7520751953125,82.66114044189453 L414.31353759765625,83.12336730957031 L414.8952331542969,83.07041931152344 L415.48211669921875,82.48974609375 L416.0780944824219,81.38101196289062 L416.62481689453125,79.79971313476562 L417.0708312988281,77.8765640258789 L417.3822021484375,75.77105712890625 L417.5780334472656,73.63363647460938 L417.71514892578125,71.5613021850586 L417.87896728515625,69.62955474853516 L418.108642578125,67.91181182861328 L418.4286193847656,66.46101379394531 L418.794921875,65.31671142578125 L419.1448669433594,64.48302459716797 L419.40240478515625,63.96696090698242 L419.5447082519531,63.71409225463867 M430.9945373535156,57.60755920410156 L431.0115051269531,57.638641357421875 L431.038330078125,57.71641540527344 L431.0773620605469,57.91010665893555 L431.1070251464844,58.320579528808594 L431.1109619140625,59.0922737121582 L431.05145263671875,60.30401611328125 L430.91204833984375,61.981929779052734 L430.6920166015625,64.07186889648438 L430.43780517578125,66.49201202392578 L430.1850280761719,69.14637756347656 L429.95989990234375,71.95689392089844 L429.7606201171875,74.83267974853516 L429.5693054199219,77.68550109863281 L429.3608703613281,80.39569091796875 L429.16845703125,82.86198425292969 L429.02947998046875,84.95140838623047 L428.96221923828125,86.54338836669922 L428.96954345703125,87.57809448242188 L429.01129150390625,88.1072998046875 L429.0430908203125,88.27714538574219 M425.5883483886719,73.05379486083984 L425.58599853515625,73.08016967773438 L425.735595703125,73.09300231933594 L426.1395263671875,73.0535888671875 L426.86474609375,72.88580322265625 L427.8718566894531,72.5252914428711 L429.0911865234375,71.92647552490234 L430.42694091796875,71.05339050292969 L431.8157958984375,69.92289733886719 L433.15643310546875,68.57328033447266 L434.3681335449219,67.03338623046875 L435.36810302734375,65.3423080444336 L436.093505859375,63.551979064941406 L436.52398681640625,61.728878021240234 L436.69940185546875,59.96854782104492 L436.6903076171875,58.388675689697266 L436.6106262207031,57.10657501220703 L436.5296630859375,56.16938400268555 L436.4856262207031,55.58808135986328 L436.4761047363281,55.354312896728516 L436.48248291015625,55.47344970703125 L436.4805908203125,56.0030517578125 L436.47467041015625,57.02703094482422 L436.43939208984375,58.541969299316406 L436.38861083984375,60.5184326171875 L436.321044921875,62.89190673828125 L436.24163818359375,65.60100555419922 L436.141845703125,68.56651306152344 L436.02935791015625,71.70819854736328 L435.90008544921875,74.88758850097656 L435.7767639160156,77.95504760742188 L435.67169189453125,80.71422576904297 L435.59625244140625,82.98075866699219 L435.54730224609375,84.61483764648438 L435.5333251953125,85.56980895996094 L435.5787353515625,85.85385131835938 L435.70574951171875,85.50065612792969 L435.9602966308594,84.49275207519531 L436.3929748535156,82.83443450927734 L437.02850341796875,80.611328125 L437.87335205078125,77.99459838867188 L438.9216003417969,75.2026138305664 L440.09124755859375,72.482421875 L441.299560546875,70.06037902832031 L442.438720703125,68.14408111572266 L443.4093017578125,66.90966033935547 L444.1304931640625,66.46968841552734 L444.6041259765625,66.8603286743164 L444.81488037109375,68.05706787109375 L444.80029296875,69.98145294189453 L444.5950927734375,72.46827697753906 L444.2771301269531,75.30062866210938 L443.92071533203125,78.2206039428711 L443.625,80.9434814453125 L443.4437255859375,83.20918273925781 L443.4177551269531,84.81879425048828 L443.57928466796875,85.60517120361328 L443.95806884765625,85.48049926757812 L444.57061767578125,84.4457015991211 L445.38250732421875,82.56233215332031 L446.34600830078125,80.01774597167969 L447.37945556640625,77.0881576538086 L448.4284973144531,74.05731201171875 L449.402099609375,71.23185729980469 L450.22967529296875,68.866455078125 L450.819580078125,67.12586975097656 L451.14910888671875,66.1385498046875 L451.211181640625,65.97100067138672 L451.0555419921875,66.6279067993164 L450.70660400390625,68.12738800048828 L450.2149658203125,70.37565612792969 L449.640625,73.17753601074219 L449.1131896972656,76.26561737060547 L448.7423095703125,79.30634307861328 L448.60614013671875,81.98414611816406 L448.69622802734375,84.12310028076172 L448.9459228515625,85.50843811035156 L449.252197265625,86.05435943603516 L449.5538024902344,85.81350708007812 L449.777099609375,85.20722198486328 L449.9041748046875,84.61343383789062 M451.1097412109375,61.14630889892578 L451.0645751953125,61.125091552734375 L451.0128173828125,61.15058517456055 L450.98052978515625,61.231346130371094 L451.005126953125,61.35071563720703 L451.0780029296875,61.443077087402344 L451.19366455078125,61.49836349487305 L451.30767822265625,61.51628875732422 L451.3866882324219,61.524635314941406 M458.448486328125,64.9663314819336 L458.11566162109375,64.8795166015625 L457.531005859375,64.82103729248047 L456.7256774902344,64.89317321777344 L455.8309326171875,65.22168731689453 L454.9562072753906,65.87259674072266 L454.21722412109375,66.86911010742188 L453.70855712890625,68.17692565917969 L453.531005859375,69.7552490234375 L453.71636962890625,71.53204345703125 L454.2288818359375,73.44282531738281 L454.98834228515625,75.43037414550781 L455.8459777832031,77.43617248535156 L456.6163330078125,79.37442016601562 L457.13763427734375,81.16860961914062 L457.2952880859375,82.71993255615234 L457.0365295410156,83.95453643798828 L456.3883056640625,84.82502746582031 L455.41876220703125,85.32427978515625 L454.22216796875,85.46745300292969 L452.9202880859375,85.24614715576172 L451.6732177734375,84.67488861083984 L450.61480712890625,83.81900024414062 L449.8944091796875,82.98493194580078 L449.5216064453125,82.39008331298828 M473.3544616699219,64.87165069580078 L473.33856201171875,64.90229034423828 L473.281494140625,65.09607696533203 L473.17376708984375,65.6031265258789 L473.0152893066406,66.54945373535156 L472.8121643066406,67.96832275390625 L472.5702209472656,69.8278579711914 L472.292724609375,72.05237579345703 L471.97393798828125,74.54014587402344 L471.6286315917969,77.19430541992188 L471.28326416015625,79.88626861572266 L470.9703063964844,82.4540023803711 L470.7521667480469,84.69882202148438 L470.68695068359375,86.43157958984375 L470.773193359375,87.5277099609375 L470.9264831542969,88.05311584472656 L471.06463623046875,88.19193267822266 M472.0430908203125,58.91608810424805 L472.0205078125,58.860870361328125 L472.00286865234375,58.806819915771484 L471.9947509765625,58.769935607910156 L472.00054931640625,58.76620864868164 M482.83734130859375,65.20193481445312 L482.6635437011719,64.83568572998047 L482.26611328125,64.296142578125 L481.60357666015625,63.732879638671875 L480.716064453125,63.38901138305664 L479.6805114746094,63.37822723388672 L478.63446044921875,63.78273391723633 L477.6995544433594,64.59246063232422 L477.02911376953125,65.80547332763672 L476.7456359863281,67.37542724609375 L476.91632080078125,69.23542022705078 L477.5036926269531,71.30907440185547 L478.38214111328125,73.53430938720703 L479.3431396484375,75.83495330810547 L480.177978515625,78.15674591064453 L480.7323913574219,80.42042541503906 L480.9424133300781,82.51494598388672 L480.8258056640625,84.32706451416016 L480.421875,85.7503890991211 L479.787353515625,86.7115478515625 L478.947021484375,87.13782501220703 L477.96002197265625,87.04240417480469 L476.9039306640625,86.49198913574219 L476.03839111328125,85.82585144042969 L475.488037109375,85.301025390625 M500.46478271484375,66.83509826660156 L500.36968994140625,66.52466583251953 L500.16070556640625,66.0294418334961 L499.807373046875,65.41938018798828 L499.30078125,64.85440063476562 L498.6421203613281,64.42328643798828 L497.82537841796875,64.21864318847656 L496.8773193359375,64.31976318359375 L495.8402099609375,64.8072280883789 L494.7793884277344,65.71355438232422 L493.7613830566406,67.05418395996094 L492.8643798828125,68.81095886230469 L492.1344299316406,70.94102478027344 L491.6208190917969,73.35186004638672 L491.35089111328125,75.90172576904297 L491.3528747558594,78.3724136352539 L491.62091064453125,80.53922271728516 L492.1385803222656,82.2161636352539 L492.85491943359375,83.29283142089844 L493.71051025390625,83.71257019042969 L494.64483642578125,83.45637512207031 L495.6215515136719,82.50811004638672 L496.5984191894531,80.89662170410156 L497.5303039550781,78.72801971435547 L498.3702392578125,76.19256591796875 L499.07891845703125,73.51215362548828 L499.6197814941406,70.93236541748047 L499.98895263671875,68.68522644042969 L500.2045593261719,66.91210174560547 L500.27099609375,65.71013641357422 L500.2196960449219,65.1419906616211 L500.096923828125,65.19699096679688 L499.92437744140625,65.88040161132812 L499.7528076171875,67.19068908691406 L499.62481689453125,69.00775909423828 L499.54852294921875,71.20069122314453 L499.5469055175781,73.62023162841797 L499.64654541015625,76.09164428710938 L499.85382080078125,78.47767639160156 L500.18487548828125,80.66273498535156 L500.6417541503906,82.47456359863281 L501.18389892578125,83.78705596923828 L501.74481201171875,84.54081726074219 L502.19384765625,84.83985137939453 L502.466552734375,84.86851501464844 M513.946533203125,64.63951873779297 L513.798095703125,64.48417663574219 L513.4893188476562,64.27986907958984 L512.997314453125,64.11758422851562 L512.3661499023438,64.13153839111328 L511.6510314941406,64.3851318359375 L510.92706298828125,64.91161346435547 L510.30224609375,65.71546173095703 L509.8753662109375,66.7798080444336 L509.7452392578125,68.07325744628906 L509.982666015625,69.54903411865234 L510.57244873046875,71.14077758789062 L511.44287109375,72.78655242919922 L512.4566040039062,74.4319076538086 L513.442138671875,76.03197479248047 L514.2501831054688,77.55012512207031 L514.76171875,78.94017028808594 L514.888916015625,80.1537094116211 L514.6338500976562,81.15106201171875 L514.0269165039062,81.89673614501953 L513.1397705078125,82.36245727539062 L512.066162109375,82.5475845336914 L510.9183349609375,82.47796630859375 L509.8031005859375,82.20683288574219 L508.8863525390625,81.70625305175781 L508.28619384765625,80.95951080322266 L508.03466796875,79.9466781616211 L508.0224304199219,78.97345733642578 L508.1109924316406,78.26802062988281 M517.9935302734375,53.93098068237305 L518.003173828125,54.106590270996094 L518.0137939453125,54.56669616699219 L518.0154418945312,55.42194366455078 L517.9972534179688,56.716339111328125 L517.9683837890625,58.438262939453125 L517.9281616210938,60.53963851928711 L517.8800659179688,62.95946502685547 L517.8046875,65.63128662109375 L517.686767578125,68.46510314941406 L517.5281982421875,71.3617935180664 L517.356689453125,74.19371032714844 L517.2068481445312,76.79930114746094 L517.091552734375,78.99446105957031 L517.0015258789062,80.63424682617188 L516.9381103515625,81.62847137451172 L516.898193359375,82.07798767089844 M515.9151611328125,67.80697631835938 L516.029052734375,67.58152770996094 L516.3031616210938,67.23900604248047 L516.7900390625,66.82887268066406 L517.5137329101562,66.43489074707031 L518.4093017578125,66.06082916259766 L519.394287109375,65.73246002197266 L520.2096557617188,65.48387145996094 L520.7211303710938,65.34205627441406 M526.7376098632812,66.51905059814453 L526.6531982421875,66.33598327636719 L526.468994140625,66.06835174560547 L526.1510620117188,65.80648803710938 L525.6842041015625,65.69207000732422 L525.0625,65.82164764404297 L524.3072509765625,66.2887954711914 L523.4710693359375,67.15888977050781 L522.6220092773438,68.47513580322266 L521.8489990234375,70.24193572998047 L521.2367553710938,72.369873046875 L520.8699951171875,74.70197296142578 L520.812255859375,77.03739929199219 L521.0909423828125,79.15719604492188 L521.676513671875,80.87586975097656 L522.5151977539062,82.06045532226562 L523.5173950195312,82.60948944091797 L524.5836791992188,82.48158264160156 L525.6055908203125,81.68899536132812 L526.4685668945312,80.29193878173828 L527.0765991210938,78.41910552978516 L527.391845703125,76.25700378417969 L527.40966796875,74.0053482055664 L527.1707763671875,71.84506225585938 L526.7369384765625,69.89940643310547 L526.1895751953125,68.25669860839844 L525.62646484375,66.97187042236328 L525.162109375,66.09214782714844 L524.882568359375,65.64703369140625 L524.859375,65.63373565673828 L525.0735473632812,65.95965576171875 L525.4684448242188,66.51346588134766 L525.8634033203125,67.04617309570312 L526.1399536132812,67.4071044921875 M529.9205322265625,65.96453094482422 L529.9906005859375,66.05681610107422 L530.08984375,66.36680603027344 L530.193359375,67.02812957763672 L530.259765625,68.1234359741211 L530.2752685546875,69.65704345703125 L530.2532348632812,71.5748062133789 L530.222900390625,73.78604125976562 L530.215576171875,76.16944885253906 L530.260498046875,78.56613159179688 L530.3694458007812,80.77349853515625 L530.5175170898438,82.60346984863281 L530.6796264648438,83.9425048828125 L530.811767578125,84.75694274902344 L530.8823852539062,85.05665588378906 L530.8883056640625,84.84064483642578 L530.8553466796875,84.0602798461914 L530.8096313476562,82.67851257324219 L530.8019409179688,80.73248291015625 L530.8629150390625,78.33511352539062 L531.0157470703125,75.66036224365234 L531.2861328125,72.91051483154297 L531.6768798828125,70.27725219726562 L532.1718139648438,67.90562438964844 L532.736328125,65.90770721435547 L533.2963256835938,64.35469818115234 L533.770263671875,63.259857177734375 L534.0955200195312,62.594757080078125 L534.2208251953125,62.33125305175781 L534.1569213867188,62.42619323730469 L533.9310302734375,62.84896469116211 L533.5828857421875,63.59002685546875 L533.1615600585938,64.62095642089844 L532.7302856445312,65.82453155517578 L532.331787109375,67.06243896484375 L532.045654296875,68.04350280761719 L531.8865966796875,68.63121032714844 M536.95703125,67.66095733642578 L537.1033935546875,67.75054168701172 L537.3257446289062,68.01627349853516 L537.5843505859375,68.55520629882812 L537.801513671875,69.42179107666016 L537.9576416015625,70.6296615600586 L538.0553588867188,72.13563537597656 L538.1360473632812,73.8895034790039 L538.2401733398438,75.8316421508789 L538.4042358398438,77.87730407714844 L538.6551513671875,79.91864776611328 L538.9867553710938,81.83013153076172 L539.37841796875,83.46735382080078 L539.7975463867188,84.72447967529297 L540.2094116210938,85.54635620117188 L540.56640625,85.92166900634766 L540.864013671875,85.8861083984375 L541.1035766601562,85.48260498046875 L541.3204345703125,84.73358154296875 L541.547607421875,83.66126251220703 L541.8143310546875,82.28681945800781 L542.1071166992188,80.64856719970703 L542.4046630859375,78.80809783935547 L542.6796875,76.83073425292969 L542.924560546875,74.7835693359375 L543.1438598632812,72.7406005859375 L543.3535766601562,70.77156066894531 L543.5582885742188,68.92498016357422 L543.7474365234375,67.27039337158203 L543.8978881835938,65.87116241455078 L543.9859008789062,64.7961196899414 L543.9932861328125,64.12297821044922 L543.9085083007812,63.927181243896484 L543.759521484375,64.23213958740234 L543.5774536132812,65.06768035888672 L543.3980712890625,66.40738677978516 L543.2467651367188,68.19457244873047 L543.117919921875,70.37177276611328 L542.972900390625,72.88247680664062 L542.7947998046875,75.66112518310547 L542.5659790039062,78.65304565429688 L542.2925415039062,81.77546691894531 L541.9998779296875,84.94517517089844 L541.7002563476562,88.09728240966797 L541.3787841796875,91.17566680908203 L541.0372314453125,94.14695739746094 L540.6795043945312,96.9811019897461 L540.301513671875,99.62416076660156 L539.9308471679688,102.01758575439453 L539.5789184570312,104.08123779296875 L539.2424926757812,105.73751831054688 L538.925048828125,106.93617248535156 L538.5931396484375,107.66111755371094 L538.2178344726562,107.95927429199219 L537.7568359375,107.88168334960938 L537.32666015625,107.63716125488281 L537.0140380859375,107.39683532714844 M557.0963134765625,72.19650268554688 L557.0419921875,71.97611236572266 L556.9122314453125,71.55903625488281 L556.6900024414062,70.95832824707031 L556.3712158203125,70.26205444335938 L555.9554443359375,69.55060577392578 L555.460205078125,68.90990447998047 L554.8782348632812,68.37908172607422 L554.1965942382812,68.0027847290039 L553.4209594726562,67.81831359863281 L552.5604858398438,67.86540222167969 L551.6295166015625,68.19244384765625 L550.6615600585938,68.8378677368164 L549.6834106445312,69.8023910522461 L548.7420043945312,71.06698608398438 L547.9171752929688,72.59126281738281 L547.287353515625,74.31529235839844 L546.8958740234375,76.15745544433594 L546.7701416015625,78.0113296508789 L546.8863525390625,79.74713897705078 L547.2156982421875,81.25016784667969 L547.7298583984375,82.43518829345703 L548.3834838867188,83.25267791748047 L549.1363525390625,83.67483520507812 L549.9493408203125,83.68034362792969 L550.77587890625,83.24357604980469 L551.6001586914062,82.3573226928711 L552.391357421875,81.0370864868164 L553.1261596679688,79.33039855957031 L553.7987060546875,77.32243347167969 L554.373779296875,75.12692260742188 L554.8326416015625,72.88030242919922 L555.1674194335938,70.72809600830078 L555.35498046875,68.8019790649414 L555.4144897460938,67.20072937011719 L555.3662719726562,65.98916625976562 L555.2379150390625,65.17031860351562 L555.092041015625,64.732177734375 L554.981689453125,64.66728973388672 L554.9240112304688,64.98357391357422 L554.923828125,65.72217559814453 L554.9283447265625,66.92159271240234 L554.9132080078125,68.55052947998047 L554.8692626953125,70.55746459960938 L554.8026733398438,72.85540771484375 L554.733154296875,75.3327407836914 L554.7064208984375,77.8821792602539 L554.740234375,80.36739349365234 L554.8642578125,82.60939025878906 L555.06787109375,84.46476745605469 L555.316650390625,85.83655548095703 L555.5630493164062,86.69709777832031 L555.8052978515625,87.01041412353516 L556.0355224609375,86.79895782470703 L556.251708984375,86.1214370727539 L556.421630859375,85.33833312988281 L556.5282592773438,84.72665405273438 M559.2100219726562,55.62620162963867 L559.2869262695312,55.84882354736328 L559.4092407226562,56.38819122314453 L559.5350341796875,57.34071350097656 L559.6136474609375,58.72996520996094 L559.6226196289062,60.552181243896484 L559.5620727539062,62.781917572021484 L559.4454345703125,65.37411499023438 L559.3074340820312,68.25286102294922 L559.1707763671875,71.28666687011719 L559.0725708007812,74.32555389404297 L559.0470581054688,77.21493530273438 L559.1168212890625,79.81396484375 L559.2777099609375,82.00518798828125 L559.5096435546875,83.70890045166016 L559.779052734375,84.88494873046875 L560.083740234375,85.3991470336914 L560.4282836914062,85.17707061767578 L560.81591796875,84.24139404296875 L561.1569213867188,83.10094451904297 L561.3892822265625,82.18089294433594 M564.2787475585938,55.9156379699707 L564.3056030273438,56.067138671875 L564.3342895507812,56.49787902832031 L564.3410034179688,57.346900939941406 L564.303955078125,58.67708969116211 L564.21337890625,60.47947692871094 L564.0879516601562,62.698822021484375 L563.9600830078125,65.25468444824219 L563.8436889648438,68.06787872314453 L563.7637939453125,71.04344177246094 L563.7495727539062,74.0470199584961 L563.8129272460938,76.92105865478516 L563.9790649414062,79.50796508789062 L564.2257690429688,81.63865661621094 L564.4947509765625,83.22084045410156 L564.7109375,84.19025421142578 L564.8387451171875,84.64149475097656 M581.289794921875,60.101810455322266 L581.1896362304688,60.034027099609375 L580.97705078125,60.02594757080078 L580.6160278320312,60.18841552734375 L580.0977783203125,60.65396499633789 L579.4451904296875,61.50086975097656 L578.679931640625,62.76585388183594 L577.840087890625,64.43204498291016 L577.0043334960938,66.4748764038086 L576.2427978515625,68.81319427490234 L575.6163330078125,71.35521697998047 L575.2036743164062,73.97760009765625 L575.0099487304688,76.50028991699219 L575.02294921875,78.7103042602539 L575.2291870117188,80.4358901977539 L575.6048583984375,81.54639434814453 L576.1065673828125,81.99411010742188 L576.7177124023438,81.77550506591797 L577.3798828125,80.88908386230469 L578.0460815429688,79.379150390625 L578.6849975585938,77.36498260498047 L579.2926635742188,75.01228332519531 L579.8419799804688,72.50827026367188 L580.3330078125,70.02140045166016 L580.7379150390625,67.66136932373047 L581.0260620117188,65.52947235107422 L581.1821899414062,63.72574996948242 L581.220458984375,62.3348388671875 L581.16552734375,61.396949768066406 L581.07177734375,60.91375732421875 L580.9812622070312,60.865108489990234 L580.906494140625,61.25319290161133 L580.83984375,62.11056900024414 L580.7623901367188,63.48918151855469 L580.67626953125,65.37258911132812 L580.596923828125,67.67993927001953 L580.5484008789062,70.28765869140625 L580.5517578125,73.0528793334961 L580.6151123046875,75.81379699707031 L580.74951171875,78.45186614990234 L580.9757690429688,80.80266571044922 L581.2970581054688,82.70246887207031 L581.676025390625,84.05802917480469 L582.041015625,84.85413360595703 L582.3031005859375,85.08535766601562 L582.4197998046875,84.87921142578125 L582.4113159179688,84.35443115234375 L582.3504028320312,83.78356170654297 L582.2951049804688,83.36418914794922 M584.4144897460938,55.50303649902344 L584.42236328125,55.575660705566406 L584.423095703125,55.83039855957031 L584.3961181640625,56.37498092651367 L584.3359375,57.267120361328125 L584.2504272460938,58.50090026855469 L584.1498413085938,60.054447174072266 L584.0219116210938,61.88538360595703 L583.8660888671875,63.995765686035156 L583.6566162109375,66.38215637207031 L583.4100952148438,69.02006530761719 L583.1556396484375,71.83355712890625 L582.9354248046875,74.6879653930664 L582.7960205078125,77.3892593383789 L582.760009765625,79.75187683105469 L582.8250732421875,81.61251068115234 L582.9976806640625,82.88531494140625 L583.2777709960938,83.54781341552734 L583.6683959960938,83.61210632324219 L584.180908203125,83.10081481933594 L584.791259765625,82.04198455810547 L585.4678955078125,80.4812240600586 L586.176513671875,78.50687408447266 L586.8759155273438,76.25377655029297 L587.5369262695312,73.87921142578125 L588.12890625,71.53919219970703 L588.6207275390625,69.3567123413086 L588.9912109375,67.43915557861328 L589.2324829101562,65.87513732910156 L589.3434448242188,64.74554443359375 L589.3569946289062,64.12503051757812 L589.2919921875,64.06462860107422 L589.1777954101562,64.59314727783203 L589.0303344726562,65.7253189086914 L588.854736328125,67.42745208740234 L588.6629028320312,69.61233520507812 L588.4906005859375,72.15425109863281 L588.3470458984375,74.87831115722656 L588.2484741210938,77.62202453613281 L588.1826782226562,80.23478698730469 L588.136962890625,82.54840850830078 L588.1100463867188,84.4151382446289 L588.108642578125,85.74786376953125 L588.1240234375,86.51433563232422 L588.1380004882812,86.6931381225586 L588.11767578125,86.34197998046875 L588.0443725585938,85.54814147949219 L587.9523315429688,84.68916320800781 L587.87451171875,84.04478454589844 M596.0306396484375,66.39090728759766 L595.9810791015625,66.13397979736328 L595.83349609375,65.78478240966797 L595.5690307617188,65.46562957763672 L595.1951293945312,65.35132598876953 L594.753662109375,65.52530670166016 L594.2793579101562,66.04615020751953 L593.7854614257812,66.94918823242188 L593.2951049804688,68.24591064453125 L592.8358764648438,69.92386627197266 L592.4161376953125,71.93439483642578 L592.0633544921875,74.20912170410156 L591.8052368164062,76.63236236572266 L591.682373046875,79.05288696289062 L591.724609375,81.27099609375 L591.9356689453125,83.10804748535156 L592.2864990234375,84.44158172607422 L592.751953125,85.22249603271484 L593.29052734375,85.43775939941406 L593.8893432617188,85.09562683105469 L594.515380859375,84.19646453857422 L595.1320190429688,82.7768325805664 L595.72216796875,80.9445571899414 L596.2555541992188,78.8488998413086 L596.693115234375,76.6427001953125 L597.0081176757812,74.44365692138672 L597.1724853515625,72.32550048828125 L597.189697265625,70.35344696044922 L597.1110229492188,68.59994506835938 L596.9834594726562,67.13996887207031 L596.8582153320312,66.01983642578125 L596.7496948242188,65.24179077148438 L596.6389770507812,64.80638122558594 L596.5225219726562,64.74712371826172 L596.3959350585938,65.09557342529297 L596.2720336914062,65.90336608886719 L596.19921875,67.15721130371094 L596.2041625976562,68.7642593383789 L596.2958984375,70.59883880615234 L596.478271484375,72.53589630126953 L596.7252197265625,74.4612045288086 L596.999755859375,76.29425048828125 L597.2852172851562,77.9576644897461 L597.544921875,79.37361907958984 L597.7549438476562,80.45376586914062 L597.9205322265625,81.10442352294922 L598.07373046875,81.23822784423828 L598.24560546875,80.75894927978516 L598.478515625,79.6332015991211 L598.7742309570312,77.91019439697266 L599.1126708984375,75.6960678100586 L599.48388671875,73.16143035888672 L599.869873046875,70.48872375488281 L600.2530517578125,67.83032989501953 L600.632080078125,65.3371353149414 L600.987060546875,63.150169372558594 L601.2928466796875,61.37495803833008 L601.5254516601562,60.10636520385742 L601.652099609375,59.41168212890625 L601.6678466796875,59.35086441040039 L601.5894775390625,59.96184158325195 L601.44384765625,61.26985168457031 L601.2676391601562,63.22929000854492 L601.0750732421875,65.7281265258789 L600.8855590820312,68.60726165771484 L600.7129516601562,71.69706726074219 L600.5576171875,74.80724334716797 L600.4239501953125,77.77288818359375 L600.32666015625,80.41813659667969 L600.2628173828125,82.57102966308594 L600.252197265625,84.13191223144531 L600.27490234375,85.06255340576172 L600.3051147460938,85.47747802734375 M602.391357421875,74.31379699707031 L602.4161376953125,74.0786361694336 L602.5021362304688,73.68090057373047 L602.688232421875,73.11502838134766 L603.0027465820312,72.40106201171875 L603.453125,71.46683502197266 L604.0242309570312,70.26740264892578 L604.6709594726562,68.79190063476562 L605.335693359375,67.08993530273438 L605.9415893554688,65.23748779296875 L606.4256591796875,63.33099365234375 L606.7477416992188,61.446231842041016 L606.9102783203125,59.65207290649414 L606.9307250976562,58.04072570800781 L606.8519287109375,56.706626892089844 L606.7117309570312,55.70748519897461 L606.5447387695312,55.06769561767578 L606.373779296875,54.77897262573242 L606.208984375,54.834442138671875 L606.0278930664062,55.29070281982422 L605.836181640625,56.22686767578125 L605.6509399414062,57.653114318847656 L605.4947509765625,59.530181884765625 L605.3886108398438,61.780277252197266 L605.3211059570312,64.31732177734375 L605.2473754882812,67.08061981201172 L605.1454467773438,70.00946044921875 L605.0005493164062,72.99439239501953 L604.81103515625,75.91850280761719 L604.5958862304688,78.66062927246094 L604.383544921875,81.10283660888672 L604.1898193359375,83.13998413085938 L604.0332641601562,84.68672180175781 L603.9130859375,85.70301818847656 L603.8187255859375,86.2446517944336 L603.7352905273438,86.44426727294922 L603.6617431640625,86.39888763427734 L603.58837890625,86.17680358886719 L603.5057983398438,85.79646301269531 L603.4312744140625,85.39575958251953 L603.3790283203125,85.08525085449219 M602.6417846679688,67.84837341308594 L602.6580810546875,67.86376190185547 L602.7006225585938,67.88716125488281 L602.7647705078125,67.91754913330078 L602.8460693359375,67.94739532470703 L602.9302978515625,67.97525787353516 L603.0301513671875,68.0000991821289 L603.1244506835938,68.01791381835938 L603.196044921875,68.02757263183594 M611.089599609375,67.62262725830078 L611.1172485351562,67.6402587890625 L611.1912231445312,67.58682250976562 L611.3265380859375,67.37449645996094 L611.536865234375,66.90848541259766 L611.829345703125,66.1281967163086 L612.1998291015625,65.0107421875 L612.6204223632812,63.53987121582031 L613.0556030273438,61.71053695678711 L613.4603881835938,59.555755615234375 L613.7987060546875,57.15593719482422 L614.0531005859375,54.64242172241211 L614.1851806640625,52.186458587646484 L614.1563720703125,49.937522888183594 L613.95556640625,48.020294189453125 L613.6114501953125,46.514381408691406 L613.1838989257812,45.48649597167969 L612.7500610351562,45.0 L612.353271484375,45.133480072021484 L611.9879760742188,45.95197296142578 L611.6487426757812,47.51368713378906 L611.3228149414062,49.8004035949707 L611.00439453125,52.74882507324219 L610.6797485351562,56.24702072143555 L610.3269653320312,60.1649169921875 L609.91943359375,64.3490982055664 L609.458740234375,68.64771270751953 L608.9647216796875,72.89031219482422 L608.48876953125,76.92247772216797 L608.0674438476562,80.59722137451172 L607.7276000976562,83.7829360961914 L607.4888916015625,86.3514175415039 L607.3385009765625,88.20502471923828 L607.2562255859375,89.3541488647461 L607.2222900390625,89.89930725097656 L607.1961669921875,89.97484588623047 L607.1854248046875,89.69497680664062 L607.2141723632812,89.09091186523438 L607.3228759765625,88.12223052978516 L607.5554809570312,86.80702209472656 L607.933349609375,85.19737243652344 L608.4473266601562,83.37663269042969 L609.08447265625,81.4191665649414 L609.8138427734375,79.36314392089844 L610.61083984375,77.20631408691406 L611.4552001953125,74.97618103027344 L612.3414306640625,72.72047424316406 L613.28173828125,70.50669860839844 L614.2661743164062,68.3927993774414 L615.261474609375,66.42308807373047 L616.1964111328125,64.6239242553711 L617.0004272460938,63.03059768676758 L617.634033203125,61.70218276977539 L618.1012573242188,60.68463134765625 L618.433837890625,60.00769805908203 L618.6478881835938,59.669761657714844 L618.738525390625,59.661556243896484 L618.688720703125,59.984893798828125 L618.489990234375,60.6718635559082 L618.1478271484375,61.74992370605469 L617.7083740234375,63.241329193115234 L617.2040405273438,65.13489532470703 L616.67333984375,67.38336944580078 L616.1399536132812,69.89205169677734 L615.62255859375,72.5540542602539 L615.129150390625,75.27030181884766 L614.68896484375,77.95445251464844 L614.32275390625,80.53155517578125 L614.0592651367188,82.90955352783203 L613.9357299804688,84.96932220458984 L613.9842529296875,86.61388397216797 L614.2388916015625,87.7849349975586 L614.7196044921875,88.45999145507812 L615.4171752929688,88.65294647216797 L616.2879028320312,88.38196563720703 L617.2730712890625,87.68372344970703 L618.2977294921875,86.62771606445312 L619.293212890625,85.30167388916016 L620.1996459960938,83.80034637451172 L620.9705810546875,82.20513153076172 L621.5545654296875,80.55143737792969 L621.9012451171875,78.86209106445312 L621.9677734375,77.14605712890625 L621.7185668945312,75.436279296875 L621.169677734375,73.80122375488281 L620.3839111328125,72.3388900756836 L619.4453735351562,71.13204956054688 L618.4476318359375,70.24284362792969 L617.473388671875,69.70037078857422 L616.592041015625,69.49533081054688 L615.8703002929688,69.55887603759766 L615.3489990234375,69.79335021972656 L615.0416870117188,70.0436782836914 L614.908447265625,70.2116470336914 M628.21533203125,70.75302124023438 L628.191162109375,70.4200439453125 L628.0950927734375,69.92389678955078 L627.8818359375,69.39421844482422 L627.52880859375,69.02442169189453 L627.0464477539062,68.90595245361328 L626.47705078125,69.1065673828125 L625.8867797851562,69.67269897460938 L625.306640625,70.64850616455078 L624.7774047851562,72.05894470214844 L624.3372192382812,73.85540008544922 L624.0213623046875,75.94989013671875 L623.8543701171875,78.20323181152344 L623.8807373046875,80.45866394042969 L624.0877685546875,82.53604125976562 L624.45947265625,84.26810455322266 L624.9780883789062,85.51898193359375 L625.6172485351562,86.20924377441406 L626.3392333984375,86.3087387084961 L627.14013671875,85.82504272460938 L627.964111328125,84.78543853759766 L628.7265014648438,83.24456787109375 L629.3544921875,81.3201904296875 L629.7738037109375,79.15631103515625 L629.9320068359375,76.90998840332031 L629.8480224609375,74.70731353759766 L629.556640625,72.63399505615234 L629.1263427734375,70.77073669433594 L628.6678466796875,69.23855590820312 L628.2691650390625,68.14064025878906 L627.9984130859375,67.51261901855469 L627.8674926757812,67.26398468017578 M633.1298828125,66.14488220214844 L633.1617431640625,66.15621185302734 L633.20703125,66.2881088256836 L633.2379760742188,66.65089416503906 L633.2202758789062,67.36872100830078 L633.1303100585938,68.49356842041016 L632.95849609375,70.02999877929688 L632.7290649414062,71.92193603515625 L632.512939453125,74.06970977783203 L632.3715209960938,76.33643341064453 L632.3646240234375,78.59857177734375 L632.5028076171875,80.69886016845703 L632.757568359375,82.48493957519531 L633.0805053710938,83.82869720458984 L633.4462890625,84.63948822021484 L633.83935546875,84.86634826660156 L634.2650756835938,84.5008773803711 L634.7137451171875,83.5562973022461 L635.1539306640625,82.08727264404297 L635.5407104492188,80.21002960205078 L635.8333740234375,78.0746078491211 L636.02685546875,75.86390686035156 L636.126953125,73.7308578491211 L636.1485595703125,71.80371856689453 L636.0904541015625,70.17549896240234 L635.9747924804688,68.93180847167969 L635.8140869140625,68.1380844116211 L635.6441650390625,67.87541961669922 L635.4978637695312,68.19086456298828 L635.4061889648438,69.09779357910156 L635.3650512695312,70.5300521850586 L635.4015502929688,72.361328125 L635.527099609375,74.42571258544922 L635.7567138671875,76.5592041015625 L636.115234375,78.6163101196289 L636.591552734375,80.46937561035156 L637.1431884765625,82.00501251220703 L637.7413330078125,83.13762664794922 L638.3543701171875,83.80986022949219 L638.984619140625,84.0032730102539 L639.658935546875,83.69524383544922 L640.3514404296875,82.8572006225586 L641.0128173828125,81.5037841796875 L641.5651245117188,79.71500396728516 L641.90869140625,77.63410949707031 L641.99951171875,75.47151184082031 L641.842529296875,73.38268280029297 L641.4727783203125,71.48989868164062 L640.9267578125,69.8771743774414 L640.2620849609375,68.60833740234375 L639.5230712890625,67.71163940429688 L638.8980712890625,67.19853973388672 L638.4898681640625,66.97589111328125 " fill="none" stroke="black" stroke-linecap="round" stroke-width="2" /><path d="M0,0 M357.00042724609375,122.81696319580078 L356.9958801269531,123.58470916748047 L357.03594970703125,124.9622573852539 L357.14111328125,126.92134094238281 L357.3172912597656,129.24539184570312 L357.532470703125,131.86184692382812 L357.7601318359375,134.66746520996094 L357.99334716796875,137.5286407470703 L358.2344665527344,140.21339416503906 L358.4862976074219,142.48837280273438 L358.7616271972656,144.1719512939453 L358.9964599609375,145.18255615234375 L359.1571960449219,145.63787841796875 M357.2050476074219,120.63922119140625 L357.275634765625,120.76145935058594 L357.48675537109375,121.0635986328125 L357.89373779296875,121.58537292480469 L358.5099792480469,122.27278900146484 L359.2922668457031,123.00386047363281 L360.18829345703125,123.63150024414062 L361.1783142089844,124.05878448486328 L362.23529052734375,124.20845794677734 L363.3419189453125,124.03968048095703 L364.4842224121094,123.51886749267578 L365.616455078125,122.6334457397461 L366.66217041015625,121.4469985961914 L367.5535583496094,120.13704681396484 L368.2228698730469,118.9134750366211 L368.62139892578125,117.95471954345703 L368.7722473144531,117.37788391113281 L368.7305908203125,117.22294616699219 L368.57415771484375,117.55445098876953 L368.3775939941406,118.47413635253906 L368.2081298828125,120.05732727050781 L368.0910339355469,122.28679656982422 L368.03302001953125,125.06658935546875 L368.01861572265625,128.24159240722656 L368.0301818847656,131.68804931640625 L368.02655029296875,135.29539489746094 L368.0079040527344,138.95114135742188 L367.9893493652344,142.5203399658203 L367.9910583496094,145.88320922851562 L368.03961181640625,148.88294982910156 L368.1374816894531,151.38743591308594 L368.2351379394531,153.1219940185547 L368.3065490722656,154.0622100830078 M373.8446044921875,129.1883544921875 L373.9826965332031,129.6417236328125 L374.2039489746094,130.53956604003906 L374.4722595214844,131.8696746826172 L374.7491455078125,133.4685821533203 L375.0538330078125,135.2019500732422 L375.3909912109375,136.93592834472656 L375.7900390625,138.5681915283203 L376.24407958984375,140.0021209716797 L376.7194519042969,141.13368225097656 L377.2100830078125,141.89935302734375 L377.6955261230469,142.29103088378906 L378.16815185546875,142.3319549560547 L378.6365661621094,142.02757263183594 L379.0963134765625,141.35838317871094 L379.5438232421875,140.28843688964844 L379.98876953125,138.810546875 L380.40045166015625,136.9844970703125 L380.7671813964844,134.9420928955078 L381.0636901855469,132.83758544921875 L381.2895202636719,130.82066345214844 L381.4718933105469,128.99349975585938 L381.6613464355469,127.40646362304688 L381.8812255859375,126.07293701171875 L382.1459045410156,124.98273468017578 L382.43048095703125,124.13628387451172 L382.6944274902344,123.5702896118164 L382.9090881347656,123.33675384521484 L383.0592041015625,123.48320007324219 L383.13873291015625,124.04161071777344 L383.16619873046875,125.01036834716797 L383.1555480957031,126.38795471191406 L383.107177734375,128.19252014160156 L383.0335693359375,130.4383087158203 L382.9260559082031,133.11822509765625 L382.78424072265625,136.207275390625 L382.61236572265625,139.67144775390625 L382.41827392578125,143.4662628173828 L382.20947265625,147.54966735839844 L381.9971008300781,151.8367462158203 L381.7779541015625,156.18434143066406 L381.5822448730469,160.40476989746094 L381.4307861328125,164.31044006347656 L381.364990234375,167.74456787109375 L381.4062805175781,170.6226806640625 L381.5389404296875,172.9106903076172 L381.7011413574219,174.6154022216797 L381.82470703125,175.75721740722656 L381.859375,176.32757568359375 L381.81195068359375,176.37234497070312 L381.7249755859375,175.9949188232422 L381.6517639160156,175.4903564453125 L381.61468505859375,175.08712768554688 M393.7861022949219,125.08514404296875 L393.7767639160156,125.15808868408203 L393.765869140625,125.25818634033203 L393.7413330078125,125.40194702148438 L393.6763000488281,125.64344024658203 L393.545654296875,126.11383056640625 L393.34124755859375,126.93608856201172 L393.0609130859375,128.18467712402344 L392.7351379394531,129.8567657470703 L392.39788818359375,131.8814697265625 L392.0841064453125,134.1539306640625 L391.8519592285156,136.56515502929688 L391.7398986816406,139.02847290039062 L391.7539978027344,141.4820556640625 L391.877197265625,143.87879943847656 L392.10626220703125,146.15585327148438 L392.4493713378906,148.23814392089844 L392.9395751953125,150.0325927734375 L393.6019287109375,151.46620178222656 L394.4119873046875,152.47930908203125 L395.3099365234375,153.033935546875 L396.2635803222656,153.10374450683594 L397.22052001953125,152.66342163085938 L398.13751220703125,151.70199584960938 L398.96856689453125,150.25048828125 L399.637939453125,148.38107299804688 L400.1109924316406,146.2203826904297 L400.403564453125,143.92567443847656 L400.556640625,141.66085815429688 L400.6351318359375,139.59683227539062 L400.67449951171875,137.88229370117188 L400.6834716796875,136.60801696777344 L400.65911865234375,135.78012084960938 L400.5896301269531,135.3645782470703 L400.5027160644531,135.330078125 L400.41680908203125,135.69140625 L400.3419189453125,136.51084899902344 L400.272705078125,137.81820678710938 L400.196044921875,139.54849243164062 L400.112548828125,141.5966796875 L400.06805419921875,143.82716369628906 L400.08013916015625,146.09559631347656 L400.17901611328125,148.27206420898438 L400.3345947265625,150.2316436767578 L400.524658203125,151.76287841796875 L400.72021484375,152.70745849609375 L400.90240478515625,153.00254821777344 L401.0328063964844,152.8773956298828 L401.11358642578125,152.60533142089844 M401.40631103515625,123.75543975830078 L401.35211181640625,123.80835723876953 L401.294677734375,124.06591796875 L401.25152587890625,124.41557312011719 L401.240234375,124.74480438232422 M408.7723693847656,130.2390594482422 L409.0486145019531,129.60414123535156 L409.4527282714844,128.4634552001953 L409.8746643066406,126.84210968017578 L410.14453125,124.93527221679688 L410.2008056640625,122.84828186035156 L410.0322265625,120.7101821899414 L409.67742919921875,118.65061950683594 L409.17181396484375,116.80587005615234 L408.5649719238281,115.25906372070312 L407.89227294921875,114.06241607666016 L407.20611572265625,113.25113677978516 L406.5533142089844,112.88299560546875 L405.96954345703125,113.03942108154297 L405.4659118652344,113.80757141113281 L405.05401611328125,115.24467468261719 L404.70599365234375,117.36244201660156 L404.4277038574219,120.11211395263672 L404.21405029296875,123.41241455078125 L404.0765380859375,127.13906860351562 L404.02349853515625,131.15818786621094 L404.08428955078125,135.3267364501953 L404.2725830078125,139.5087432861328 L404.6019287109375,143.5684051513672 L405.0513610839844,147.3948974609375 L405.5834655761719,150.8935546875 L406.1072998046875,153.97317504882812 L406.56610107421875,156.56671142578125 L406.9232177734375,158.6221923828125 L407.15765380859375,160.10606384277344 L407.28704833984375,161.06460571289062 L407.33544921875,161.5897674560547 L407.2646484375,161.68246459960938 L407.0795593261719,161.37364196777344 L406.7724914550781,160.68521118164062 L406.4513244628906,159.9154052734375 L406.2115783691406,159.318359375 M401.30596923828125,145.68316650390625 L401.2975769042969,145.69248962402344 L401.4026794433594,145.7311553955078 L401.6957702636719,145.7783203125 L402.24578857421875,145.79202270507812 L403.0225524902344,145.68545532226562 L403.9967041015625,145.38485717773438 L405.12847900390625,144.8583221435547 L406.3887634277344,144.0712432861328 L407.68524169921875,143.048828125 L408.9156188964844,141.88958740234375 L409.84307861328125,140.89707946777344 L410.3800048828125,140.24908447265625 M411.1204528808594,140.5030975341797 L411.2265319824219,140.4746551513672 L411.4876708984375,140.33079528808594 L411.9571533203125,139.96852111816406 L412.6262512207031,139.29849243164062 L413.44976806640625,138.2864227294922 L414.35498046875,136.95547485351562 L415.25177001953125,135.3857421875 L416.0313415527344,133.67626953125 L416.6166076660156,131.93006896972656 L416.94683837890625,130.26318359375 L416.9960021972656,128.7899169921875 L416.7546081542969,127.61348724365234 L416.2590026855469,126.81438446044922 L415.52349853515625,126.4352035522461 L414.6242370605469,126.50423431396484 L413.64605712890625,127.05915069580078 L412.6710205078125,128.1339569091797 L411.76873779296875,129.7340850830078 L411.0340270996094,131.8183135986328 L410.5195007324219,134.28436279296875 L410.3097229003906,136.98651123046875 L410.4427490234375,139.7490997314453 L410.91009521484375,142.39450073242188 L411.65960693359375,144.75830078125 L412.62774658203125,146.72103881835938 L413.7371826171875,148.19854736328125 L414.94451904296875,149.14511108398438 L416.19964599609375,149.51605224609375 L417.464111328125,149.30262756347656 L418.67901611328125,148.54034423828125 L419.78753662109375,147.34390258789062 L420.7346496582031,145.83700561523438 L421.47625732421875,144.21176147460938 L421.9807434082031,142.635498046875 L422.26422119140625,141.42669677734375 L422.3766174316406,140.70631408691406 M433.54827880859375,131.57058715820312 L433.49591064453125,131.21937561035156 L433.3764343261719,130.64674377441406 L433.15576171875,129.9290771484375 L432.8095397949219,129.23057556152344 L432.3243713378906,128.6238250732422 L431.7100830078125,128.14846801757812 L430.98388671875,127.83103942871094 L430.1781311035156,127.73889923095703 L429.31634521484375,127.94725799560547 L428.43206787109375,128.54580688476562 L427.5684509277344,129.5970001220703 L426.77716064453125,131.09646606445312 L426.1094055175781,132.98451232910156 L425.6358337402344,135.15541076660156 L425.4187316894531,137.46507263183594 L425.5003356933594,139.758544921875 L425.879150390625,141.87655639648438 L426.51904296875,143.67095947265625 L427.344970703125,145.02842712402344 L428.2857360839844,145.90101623535156 L429.27337646484375,146.29124450683594 L430.2398376464844,146.2261505126953 L431.117919921875,145.7325897216797 L431.8592529296875,144.8373260498047 L432.4185791015625,143.57322692871094 L432.7745056152344,142.01576232910156 L432.9537658691406,140.2744598388672 L432.9959716796875,138.46241760253906 L432.9350891113281,136.67739868164062 L432.8018798828125,134.99722290039062 L432.6025695800781,133.45916748046875 L432.34503173828125,132.10862731933594 L432.0725402832031,131.00587463378906 L431.8172607421875,130.18234252929688 L431.61468505859375,129.659423828125 L431.4800720214844,129.4561309814453 L431.4155578613281,129.5516815185547 L431.4056701660156,129.96926879882812 L431.42645263671875,130.74276733398438 L431.44677734375,131.87042236328125 L431.4583740234375,133.33935546875 L431.453125,135.1276092529297 L431.4757385253906,137.1983642578125 L431.5315856933594,139.55712890625 L431.6076354980469,142.22430419921875 L431.66650390625,145.2108612060547 L431.65582275390625,148.50267028808594 L431.53204345703125,152.0344696044922 L431.3111572265625,155.6911163330078 L431.001220703125,159.32083129882812 L430.6510009765625,162.7740936279297 L430.29364013671875,165.88888549804688 L429.9507751464844,168.529296875 L429.6165771484375,170.6018829345703 L429.26947021484375,172.04962158203125 L428.87530517578125,172.88320922851562 L428.4217529296875,173.1798858642578 L427.88873291015625,173.00132751464844 L427.295654296875,172.404052734375 L426.66448974609375,171.43373107910156 L426.03790283203125,170.0879669189453 L425.4595947265625,168.3857421875 L424.97760009765625,166.35845947265625 L424.628173828125,164.03018188476562 L424.4505615234375,161.4280242919922 L424.4732360839844,158.59788513183594 L424.7272033691406,155.57386779785156 L425.213623046875,152.41676330566406 L425.932861328125,149.17445373535156 L426.8743896484375,145.89572143554688 L427.99664306640625,142.61473083496094 L429.26519775390625,139.37974548339844 L430.65948486328125,136.2209930419922 L432.16619873046875,133.16775512695312 L433.77435302734375,130.21237182617188 L435.45867919921875,127.36695098876953 L437.1517333984375,124.65953826904297 L438.7520751953125,122.15821838378906 L440.1656494140625,119.93938446044922 L441.3360595703125,118.07156372070312 L442.2098693847656,116.56880187988281 L442.7884521484375,115.43653869628906 L443.1061706542969,114.65730285644531 L443.17437744140625,114.21265411376953 L443.0096435546875,114.11260223388672 L442.6319580078125,114.39904022216797 L442.04150390625,115.13218688964844 L441.28826904296875,116.37726593017578 L440.45794677734375,118.15707397460938 L439.62646484375,120.43167877197266 L438.85247802734375,123.12303161621094 L438.1758117675781,126.12974548339844 L437.64642333984375,129.3404998779297 L437.3118591308594,132.61940002441406 L437.2327880859375,135.8065643310547 L437.4233093261719,138.71348571777344 L437.83905029296875,141.1810760498047 L438.397705078125,143.10989379882812 L439.03424072265625,144.4759521484375 L439.6618347167969,145.30368041992188 L440.2391052246094,145.627685546875 L440.71563720703125,145.44174194335938 L441.04083251953125,144.7199249267578 L441.1867980957031,143.44747924804688 L441.1612548828125,141.663330078125 L440.9700927734375,139.47315979003906 L440.6632080078125,137.03030395507812 L440.27606201171875,134.47634887695312 L439.8453063964844,131.9272918701172 L439.4161376953125,129.46890258789062 L439.01116943359375,127.16632080078125 L438.6557312011719,125.07942199707031 L438.3903503417969,123.28564453125 L438.2264709472656,121.85293579101562 L438.17620849609375,120.82953643798828 L438.2364196777344,120.25096893310547 L438.37677001953125,120.13837432861328 L438.6029052734375,120.49799346923828 L438.92626953125,121.33966827392578 L439.34539794921875,122.6467056274414 L439.8443603515625,124.33528900146484 L440.39337158203125,126.30683135986328 L440.946044921875,128.45462036132812 L441.4766540527344,130.6763153076172 L441.9480895996094,132.88845825195312 L442.331298828125,135.01063537597656 L442.5916748046875,136.92803955078125 L442.7469482421875,138.54234313964844 L442.807373046875,139.76576232910156 L442.7987060546875,140.55470275878906 L442.735107421875,140.9246368408203 L442.6434326171875,140.92556762695312 L442.49932861328125,140.5865936279297 L442.33929443359375,139.9311065673828 L442.1673583984375,138.9453887939453 L442.01605224609375,137.62718200683594 L441.92828369140625,136.00888061523438 L441.95086669921875,134.14793395996094 L442.0577392578125,132.09634399414062 L442.2400817871094,129.92190551757812 L442.4532165527344,127.65693664550781 L442.6898498535156,125.31817626953125 L442.968017578125,122.90119171142578 L443.30987548828125,120.40019989013672 L443.7181396484375,117.83042907714844 L444.1608581542969,115.25350952148438 L444.59478759765625,112.76210021972656 L444.98968505859375,110.47096252441406 L445.3218994140625,108.49767303466797 L445.5625915527344,106.94281005859375 L445.70477294921875,105.84600830078125 L445.7474670410156,105.20466613769531 L445.7411804199219,105.0 L445.7582092285156,105.22818756103516 L445.8371276855469,105.944580078125 L445.96710205078125,107.21340942382812 L446.11614990234375,109.0267105102539 L446.25799560546875,111.32223510742188 L446.38861083984375,113.988525390625 L446.5234069824219,116.91905975341797 L446.6773986816406,120.04680633544922 L446.86004638671875,123.31229400634766 L447.08258056640625,126.63124084472656 L447.3763732910156,129.88833618164062 L447.75299072265625,132.942138671875 L448.1958923339844,135.6647186279297 L448.6661682128906,137.96273803710938 L449.0805358886719,139.74864196777344 L449.362548828125,140.9737548828125 L449.4808654785156,141.64292907714844 L449.4820251464844,141.89134216308594 L449.4328308105469,141.90228271484375 M442.41485595703125,126.92529296875 L442.4438171386719,126.91940307617188 L442.63165283203125,126.86474609375 L443.0888977050781,126.71002960205078 L443.88720703125,126.39522552490234 L444.99371337890625,125.88837432861328 L446.30804443359375,125.18318939208984 L447.7084045410156,124.33537292480469 L449.11376953125,123.40965270996094 L450.43206787109375,122.50938415527344 L451.5819396972656,121.72643280029297 L452.4041442871094,121.18000793457031 L452.86065673828125,120.88261413574219 M471.09173583984375,110.62381744384766 L470.9725036621094,110.28596496582031 L470.7557373046875,109.76688385009766 L470.41510009765625,109.14895629882812 L469.9790954589844,108.59222412109375 L469.4483947753906,108.15637969970703 L468.8538818359375,107.93263244628906 L468.2123107910156,107.988037109375 L467.5682067871094,108.43087005615234 L466.91131591796875,109.34761810302734 L466.27337646484375,110.81058502197266 L465.6676025390625,112.85940551757812 L465.119140625,115.49654388427734 L464.6607666015625,118.6710205078125 L464.34051513671875,122.32060241699219 L464.1693115234375,126.36207580566406 L464.14404296875,130.720703125 L464.234619140625,135.33090209960938 L464.387451171875,140.08831787109375 L464.5897216796875,144.845703125 L464.85845947265625,149.43466186523438 L465.22296142578125,153.66885375976562 L465.6806945800781,157.412353515625 L466.20782470703125,160.61912536621094 L466.7519836425781,163.22682189941406 L467.2625732421875,165.16444396972656 L467.6913146972656,166.3906707763672 L467.98858642578125,166.98663330078125 L468.1463623046875,167.14927673339844 M460.7659606933594,129.53662109375 L460.85528564453125,129.7008056640625 L461.0916442871094,129.97462463378906 L461.52557373046875,130.32334899902344 L462.18359375,130.61489868164062 L463.0699157714844,130.7376251220703 L464.17230224609375,130.5840606689453 L465.4728698730469,130.0872344970703 L466.914794921875,129.22698974609375 L468.4035339355469,128.0411834716797 L469.8319091796875,126.55976867675781 L471.09033203125,124.84502410888672 L472.0989074707031,122.95330810546875 L472.82958984375,120.95040130615234 L473.2708740234375,118.89810180664062 L473.43768310546875,116.8575439453125 L473.356689453125,114.8863525390625 L473.05767822265625,113.04774475097656 L472.58453369140625,111.38800048828125 L471.99951171875,109.94474792480469 L471.3493957519531,108.74687957763672 L470.7039489746094,107.8061752319336 L470.11962890625,107.13501739501953 L469.6377868652344,106.75191497802734 L469.28765869140625,106.690673828125 L469.0675048828125,107.01036071777344 L468.927734375,107.80692291259766 L468.848388671875,109.14733123779297 L468.80426025390625,111.0676498413086 L468.7670593261719,113.54540252685547 L468.7272644042969,116.51040649414062 L468.6768798828125,119.8618392944336 L468.61602783203125,123.4823226928711 L468.56280517578125,127.2314453125 L468.5562744140625,130.98297119140625 L468.6158447265625,134.6046142578125 L468.7724914550781,137.98013305664062 L469.0428466796875,141.00177001953125 L469.4393310546875,143.5507354736328 L469.921875,145.54322814941406 L470.4598388671875,146.94912719726562 L470.99627685546875,147.75389099121094 L471.513427734375,147.98069763183594 L472.02862548828125,147.66470336914062 L472.571533203125,146.82237243652344 L473.14971923828125,145.49746704101562 L473.7652893066406,143.76914978027344 L474.37249755859375,141.726318359375 L474.93988037109375,139.48561096191406 L475.4616394042969,137.16323852539062 L475.9395446777344,134.84912109375 L476.36981201171875,132.603759765625 L476.7354736328125,130.4787139892578 L477.0097351074219,128.52688598632812 L477.1612548828125,126.81636810302734 L477.2049255371094,125.41693115234375 L477.1654968261719,124.383544921875 L477.062744140625,123.74662780761719 L476.92181396484375,123.54710388183594 L476.76361083984375,123.8284683227539 L476.598876953125,124.64151763916016 L476.4569091796875,126.00227355957031 L476.3448791503906,127.8560791015625 L476.25958251953125,130.0816192626953 L476.21514892578125,132.54324340820312 L476.21905517578125,135.0896453857422 L476.31256103515625,137.59454345703125 L476.5182800292969,139.9464111328125 L476.8426513671875,142.0352325439453 L477.2582702636719,143.7520751953125 L477.7128601074219,145.03790283203125 L478.1357421875,145.89035034179688 L478.47589111328125,146.28135681152344 L478.69207763671875,146.23239135742188 L478.7811279296875,145.79733276367188 L478.7879638671875,145.24412536621094 L478.76031494140625,144.7900390625 M476.70648193359375,118.8589859008789 L476.6676025390625,118.87952423095703 L476.60400390625,118.9123764038086 L476.5225524902344,118.94929504394531 L476.45111083984375,118.99261474609375 L476.407958984375,119.0514907836914 L476.39593505859375,119.13658905029297 L476.40411376953125,119.24578857421875 L476.4135437011719,119.36536407470703 L476.4015808105469,119.46492767333984 L476.36395263671875,119.54397583007812 L476.3203430175781,119.59440612792969 L476.28582763671875,119.62155151367188 M481.22991943359375,127.14393615722656 L481.26123046875,127.21398162841797 L481.30816650390625,127.43896484375 L481.3690490722656,127.91022491455078 L481.4365234375,128.6946563720703 L481.52435302734375,129.8355712890625 L481.6416015625,131.38571166992188 L481.7776794433594,133.36767578125 L481.9250793457031,135.81483459472656 L482.0689697265625,138.71151733398438 L482.1998596191406,141.98052978515625 L482.324462890625,145.50148010253906 L482.46136474609375,149.12603759765625 L482.6252136230469,152.6909942626953 L482.81842041015625,156.04507446289062 L483.0062255859375,159.01951599121094 L483.1641845703125,161.45187377929688 L483.25177001953125,163.2067108154297 L483.2674560546875,164.2771759033203 L483.22381591796875,164.74838256835938 L483.12115478515625,164.71722412109375 L482.937744140625,164.23109436035156 L482.67999267578125,163.25405883789062 L482.3478088378906,161.6973114013672 L481.9879150390625,159.59608459472656 L481.6494445800781,157.03323364257812 L481.36328125,154.12942504882812 L481.1507568359375,151.00291442871094 L481.04034423828125,147.7264404296875 L481.0704345703125,144.35911560058594 L481.2760314941406,140.99159240722656 L481.68145751953125,137.709716796875 L482.2828369140625,134.612548828125 L483.06396484375,131.78204345703125 L484.0006103515625,129.29031372070312 L485.05096435546875,127.22357940673828 L486.15667724609375,125.66800689697266 L487.25787353515625,124.71934509277344 L488.3046569824219,124.46227264404297 L489.2522888183594,124.91902923583984 L490.07525634765625,126.05037689208984 L490.7181396484375,127.75958251953125 L491.12847900390625,129.90969848632812 L491.25433349609375,132.3502655029297 L491.0716552734375,134.9451904296875 L490.5792236328125,137.5522918701172 L489.8329772949219,140.0201416015625 L488.91534423828125,142.20265197753906 L487.92449951171875,143.9773406982422 L486.9610900878906,145.2633056640625 L486.1024169921875,146.0443878173828 L485.391845703125,146.33726501464844 L484.8611755371094,146.16036987304688 L484.555419921875,145.5371856689453 L484.48687744140625,144.49267578125 L484.6695556640625,143.0729217529297 L485.08758544921875,141.3540496826172 L485.69110107421875,139.4185333251953 L486.41839599609375,137.34759521484375 L487.22320556640625,135.19561767578125 L488.044189453125,133.00518798828125 L488.83282470703125,130.81040954589844 L489.55377197265625,128.6613311767578 L490.1934814453125,126.61959075927734 L490.7354736328125,124.79026794433594 L491.15972900390625,123.26806640625 L491.454833984375,122.13037109375 L491.59747314453125,121.39586639404297 L491.607421875,121.07198333740234 L491.554443359375,121.15235900878906 L491.4859619140625,121.68763732910156 L491.4421691894531,122.74624633789062 L491.4510498046875,124.35200500488281 L491.5020751953125,126.45585632324219 L491.59112548828125,128.97296142578125 L491.712890625,131.79368591308594 L491.8383483886719,134.85411071777344 L491.9515686035156,138.124755859375 L492.040771484375,141.5732421875 L492.1100769042969,145.15802001953125 L492.1619873046875,148.82644653320312 L492.2034912109375,152.52537536621094 L492.23614501953125,156.19357299804688 L492.2589416503906,159.77215576171875 L492.272705078125,163.16270446777344 L492.2817077636719,166.2049102783203 L492.2750244140625,168.72145080566406 L492.2639465332031,170.55995178222656 L492.2411193847656,171.63682556152344 L492.19891357421875,171.97872924804688 L492.13934326171875,171.64219665527344 L492.056640625,170.6486358642578 L491.9490966796875,169.02413940429688 L491.8431396484375,166.80224609375 L491.73724365234375,164.07960510253906 L491.6541748046875,160.981201171875 L491.6324462890625,157.61550903320312 L491.69805908203125,154.03515625 L491.8838806152344,150.296630859375 L492.21563720703125,146.50421142578125 L492.6769714355469,142.81642150878906 L493.25714111328125,139.39414978027344 L493.9417419433594,136.37277221679688 L494.70166015625,133.8350830078125 L495.5137939453125,131.82945251464844 L496.33514404296875,130.3953094482422 L497.11773681640625,129.547119140625 L497.81793212890625,129.28469848632812 L498.415771484375,129.6009063720703 L498.8890686035156,130.48519897460938 L499.2159423828125,131.9078369140625 L499.36383056640625,133.80538940429688 L499.32147216796875,136.06692504882812 L499.0788269042969,138.53294372558594 L498.66998291015625,141.00729370117188 L498.1485595703125,143.2884979248047 L497.59234619140625,145.19383239746094 L497.06365966796875,146.61764526367188 L496.6095275878906,147.54014587402344 L496.2351379394531,148.00282287597656 L495.9315185546875,148.05035400390625 L495.70343017578125,147.7139892578125 L495.5873107910156,146.985107421875 L495.6204833984375,145.89427185058594 L495.8170166015625,144.50656127929688 L496.1819763183594,142.92625427246094 L496.69256591796875,141.24557495117188 L497.30828857421875,139.52963256835938 L497.99322509765625,137.78089904785156 L498.72088623046875,136.00338745117188 L499.43170166015625,134.1854705810547 L500.1109619140625,132.33908081054688 L500.75799560546875,130.4924774169922 L501.35955810546875,128.6820831298828 L501.91119384765625,126.9595947265625 L502.39495849609375,125.4140396118164 L502.7511291503906,124.14249420166016 L502.96014404296875,123.21464538574219 L503.02471923828125,122.64883422851562 L502.96551513671875,122.41010284423828 L502.8275146484375,122.48335266113281 L502.63421630859375,122.89956665039062 L502.3873291015625,123.74300384521484 L502.117431640625,125.05843353271484 L501.8607177734375,126.82349395751953 L501.6640930175781,128.9474639892578 L501.5843505859375,131.31436157226562 L501.64715576171875,133.79537963867188 L501.84039306640625,136.26625061035156 L502.1585998535156,138.58912658691406 L502.5867919921875,140.63511657714844 L503.08416748046875,142.2936553955078 L503.616455078125,143.49847412109375 L504.13140869140625,144.25650024414062 L504.562255859375,144.62179565429688 L504.8624572753906,144.66502380371094 L505.0163879394531,144.48095703125 L505.03680419921875,144.16526794433594 L504.94921875,143.8029022216797 L504.7772216796875,143.50332641601562 L504.5572204589844,143.33224487304688 L504.2843017578125,143.2808380126953 L504.0354309082031,143.301025390625 L503.8672790527344,143.34071350097656 M505.578125,135.34742736816406 L505.6787109375,135.1905059814453 L505.9031982421875,134.81640625 L506.3012390136719,134.1587677001953 L506.88482666015625,133.1940460205078 L507.63409423828125,131.92494201660156 L508.4952087402344,130.39761352539062 L509.376708984375,128.67599487304688 L510.16796875,126.8291015625 L510.78387451171875,124.96090698242188 L511.15118408203125,123.16278076171875 L511.2117919921875,121.53794860839844 L510.96539306640625,120.20115661621094 L510.43310546875,119.2654037475586 L509.6673278808594,118.80908966064453 L508.73687744140625,118.92695617675781 L507.7100524902344,119.68559265136719 L506.64337158203125,121.12020111083984 L505.62286376953125,123.21066284179688 L504.73016357421875,125.86335754394531 L504.0496826171875,128.912109375 L503.651123046875,132.17750549316406 L503.59027099609375,135.4879913330078 L503.860107421875,138.68463134765625 L504.4722595214844,141.64695739746094 L505.4150390625,144.2695770263672 L506.6712341308594,146.4813995361328 L508.1949157714844,148.24444580078125 L509.91961669921875,149.53097534179688 L511.7113037109375,150.30343627929688 L513.493408203125,150.5408172607422 L515.1854248046875,150.25033569335938 L516.72216796875,149.36561584472656 L518.0107421875,147.93124389648438 L518.9594116210938,146.07162475585938 L519.5130004882812,144.36553955078125 L519.745361328125,143.1901092529297 M516.4255981445312,124.65894317626953 L516.4222412109375,124.69683074951172 L516.4515380859375,124.82493591308594 L516.5206909179688,125.11447143554688 L516.6030883789062,125.63096618652344 L516.6398315429688,126.42788696289062 L516.5826416015625,127.52117919921875 L516.3873291015625,128.9092254638672 L516.07763671875,130.6048583984375 L515.6942138671875,132.61529541015625 L515.2833251953125,134.9188995361328 L514.902099609375,137.45046997070312 L514.6070556640625,140.0711669921875 L514.4197387695312,142.60401916503906 L514.3778076171875,144.89146423339844 L514.4739990234375,146.81906127929688 L514.7041015625,148.2689971923828 L515.0397338867188,149.1866912841797 L515.43603515625,149.56690979003906 L515.7735595703125,149.58702087402344 L515.9970092773438,149.45372009277344 M519.7239990234375,124.55401611328125 L519.719970703125,124.56356048583984 L519.6919555664062,124.65277862548828 L519.6143188476562,124.89742279052734 L519.46484375,125.37142944335938 L519.23681640625,126.13363647460938 L518.946533203125,127.2042007446289 L518.6431274414062,128.58372497558594 L518.3775634765625,130.25552368164062 L518.1898193359375,132.1729736328125 L518.0908813476562,134.26902770996094 L518.0763549804688,136.46017456054688 L518.1343994140625,138.6414794921875 L518.2672729492188,140.69558715820312 L518.4600830078125,142.50709533691406 L518.682861328125,143.9737548828125 L518.8817749023438,145.0354766845703 L519.0281982421875,145.69970703125 L519.0849609375,146.01736450195312 L519.0400390625,146.06527709960938 L518.8815307617188,145.87649536132812 L518.6000366210938,145.42388916015625 L518.2030029296875,144.64683532714844 L517.7655029296875,143.53854370117188 L517.3345947265625,142.1025848388672 L516.9729614257812,140.4216766357422 L516.7022094726562,138.5532684326172 L516.523681640625,136.5420684814453 L516.462890625,134.42477416992188 L516.5777587890625,132.2570343017578 L516.8770751953125,130.0544891357422 L517.3680419921875,127.85149383544922 L517.9859619140625,125.65325164794922 L518.6529541015625,123.48587036132812 L519.3323364257812,121.40336608886719 L520.001220703125,119.46353149414062 L520.6240844726562,117.74662780761719 L521.1739501953125,116.34306335449219 L521.598388671875,115.29631042480469 L521.865966796875,114.62244415283203 L521.9872436523438,114.32945251464844 L521.9874267578125,114.4229965209961 L521.89501953125,114.98869323730469 L521.7137451171875,116.14745330810547 L521.4379272460938,117.96139526367188 L521.0833129882812,120.41520690917969 L520.6801147460938,123.42901611328125 L520.2551879882812,126.85440826416016 L519.8511962890625,130.53330993652344 L519.4879150390625,134.30455017089844 L519.1951904296875,137.99761962890625 L519.0184326171875,141.4231414794922 L518.9866943359375,144.39808654785156 L519.0953979492188,146.7529754638672 L519.3270874023438,148.4044647216797 L519.56884765625,149.35049438476562 L519.7457275390625,149.75770568847656 M518.1364135742188,133.18138122558594 L518.177978515625,133.18972778320312 L518.3258056640625,133.1849365234375 L518.6482543945312,133.1247100830078 L519.1968383789062,132.9477996826172 L519.9749755859375,132.5940399169922 L520.9500122070312,132.0240936279297 L522.056396484375,131.2387237548828 L523.2081909179688,130.27142333984375 L524.3463134765625,129.15553283691406 L525.4175415039062,127.93948364257812 L526.3633422851562,126.72882843017578 L527.120849609375,125.6579818725586 L527.6176147460938,124.85777282714844 L527.85986328125,124.39656829833984 L527.9264526367188,124.21331787109375 M528.1862182617188,128.12452697753906 L528.19921875,128.04908752441406 L528.1995849609375,128.02630615234375 L528.1715087890625,128.18141174316406 L528.1106567382812,128.6695556640625 L528.0203247070312,129.5718994140625 L527.90380859375,130.9055633544922 L527.7684326171875,132.62962341308594 L527.62744140625,134.68167114257812 L527.5030517578125,136.96498107910156 L527.438232421875,139.38009643554688 L527.4529418945312,141.78590393066406 L527.569580078125,143.99639892578125 L527.79296875,145.83843994140625 L528.0973510742188,147.19064331054688 L528.4381103515625,147.99203491210938 L528.7843627929688,148.2383270263672 L529.1099243164062,147.92507934570312 L529.4341430664062,147.01235961914062 L529.807373046875,145.4934539794922 L530.2485961914062,143.43087768554688 L530.7567138671875,140.95883178710938 L531.3071899414062,138.25857543945312 L531.8446044921875,135.51319885253906 L532.3367919921875,132.86199951171875 L532.7703857421875,130.45974731445312 L533.1112670898438,128.4530792236328 L533.3529052734375,126.95890808105469 L533.4888305664062,126.0800552368164 L533.5145263671875,125.8542251586914 L533.4583129882812,126.2549819946289 L533.3463134765625,127.25967407226562 L533.1934814453125,128.79893493652344 L533.0375366210938,130.77223205566406 L532.9130859375,133.09080505371094 L532.8505859375,135.6186981201172 L532.8710327148438,138.20587158203125 L532.9794311523438,140.70274353027344 L533.1674194335938,142.94882202148438 L533.4224853515625,144.80731201171875 L533.7183227539062,146.20184326171875 L534.0159301757812,147.11474609375 L534.2658081054688,147.5857696533203 L534.441650390625,147.66876220703125 L534.5553588867188,147.39794921875 L534.640869140625,146.75982666015625 L534.7389526367188,145.7240753173828 L534.8847045898438,144.27859497070312 L535.089599609375,142.44485473632812 L535.3408813476562,140.2839813232422 L535.6195068359375,137.88616943359375 L535.8970947265625,135.36314392089844 L536.1587524414062,132.84100341796875 L536.4103393554688,130.4434356689453 L536.6837158203125,128.2705841064453 L536.9777221679688,126.39970397949219 L537.267333984375,124.89484405517578 L537.5109252929688,123.80011749267578 L537.665771484375,123.12020874023438 L537.71533203125,122.8448715209961 L537.6989135742188,122.95587158203125 L537.6516723632812,123.46734619140625 L537.5931396484375,124.42623138427734 L537.5350952148438,125.85592651367188 L537.4672241210938,127.73165893554688 L537.376708984375,129.98594665527344 L537.2713623046875,132.52589416503906 L537.171875,135.2617645263672 L537.0826416015625,138.1154327392578 L537.0244140625,141.01022338867188 L537.0029296875,143.85499572753906 L537.0200805664062,146.53807067871094 L537.08740234375,148.92837524414062 L537.2213134765625,150.92430114746094 L537.3638305664062,152.3036651611328 L537.4794311523438,153.0584716796875 M541.7364501953125,126.18565368652344 L541.6477661132812,125.96516418457031 L541.5303955078125,125.77057647705078 L541.4170532226562,125.79592895507812 L541.3427124023438,126.28089141845703 L541.29052734375,127.3048324584961 L541.2388305664062,128.8752899169922 L541.1763916015625,130.89976501464844 L541.115966796875,133.26983642578125 L541.0753173828125,135.8418426513672 L541.0738525390625,138.488037109375 L541.1199951171875,141.05111694335938 L541.2085571289062,143.34156799316406 L541.3218994140625,145.18173217773438 L541.4392700195312,146.44207763671875 L541.5377197265625,147.06130981445312 L541.6160888671875,147.04977416992188 L541.6939697265625,146.4252166748047 L541.8049926757812,145.1857452392578 L541.989990234375,143.39088439941406 L542.28271484375,141.14581298828125 L542.7012329101562,138.599609375 L543.2476196289062,135.91915893554688 L543.899658203125,133.25828552246094 L544.6254272460938,130.73619079589844 L545.3690795898438,128.49754333496094 L546.0449829101562,126.66365814208984 L546.5783081054688,125.3237533569336 L546.9320068359375,124.53946685791016 L547.1038818359375,124.34019470214844 L547.15283203125,124.73058319091797 L547.13037109375,125.73506164550781 L547.0535278320312,127.32637023925781 L546.9317016601562,129.41656494140625 L546.7833862304688,131.8883819580078 L546.62890625,134.59024047851562 L546.5169677734375,137.39942932128906 L546.4832763671875,140.15357971191406 L546.5341796875,142.66094970703125 L546.62060546875,144.51138305664062 L546.7003173828125,145.57382202148438 M552.161376953125,125.79415893554688 L552.1129150390625,125.86540222167969 L552.0186767578125,126.1529541015625 L551.8822021484375,126.7786865234375 L551.7244873046875,127.79728698730469 L551.5564575195312,129.1630859375 L551.4082641601562,130.8060302734375 L551.3170166015625,132.66285705566406 L551.2870483398438,134.68348693847656 L551.3232421875,136.80520629882812 L551.4056396484375,138.92596435546875 L551.4923706054688,140.9156494140625 L551.564453125,142.633544921875 L551.6165161132812,143.9745330810547 L551.6396484375,144.88937377929688 L551.6301879882812,145.35914611816406 L551.5767822265625,145.3742218017578 L551.4652709960938,144.931396484375 L551.3038330078125,144.00460815429688 L551.1221923828125,142.6108856201172 L550.9761962890625,140.82460021972656 L550.905517578125,138.7342987060547 L550.9444580078125,136.41346740722656 L551.1240234375,133.92691040039062 L551.47216796875,131.3126678466797 L551.9981689453125,128.646484375 L552.7093505859375,126.04478454589844 L553.5689086914062,123.6324691772461 L554.52001953125,121.51311492919922 L555.5048828125,119.7845458984375 L556.4630126953125,118.50398254394531 L557.3250122070312,117.73180389404297 L558.0482177734375,117.53871154785156 L558.5939331054688,117.9857406616211 L558.941162109375,119.10353088378906 L559.0880737304688,120.88320922851562 L559.0406494140625,123.23554229736328 L558.8223876953125,126.02693176269531 L558.4720458984375,129.1119384765625 L558.0450439453125,132.33303833007812 L557.59619140625,135.50868225097656 L557.180908203125,138.4476318359375 L556.8359375,140.9531707763672 L556.59619140625,142.8870086669922 L556.5013427734375,144.1089630126953 L556.5734252929688,144.5813446044922 L556.787841796875,144.35272216796875 L557.0350341796875,143.81053161621094 L557.2225952148438,143.28829956054688 M566.604736328125,139.9012908935547 L566.74951171875,140.06715393066406 L567.0291748046875,140.21954345703125 L567.4520263671875,140.21925354003906 L567.9691162109375,139.89071655273438 L568.5240478515625,139.17237854003906 L569.0467529296875,138.064697265625 L569.48828125,136.62794494628906 L569.78564453125,134.93948364257812 L569.9225463867188,133.1101837158203 L569.9058227539062,131.24415588378906 L569.7516479492188,129.44552612304688 L569.4749755859375,127.81524658203125 L569.0886840820312,126.42684936523438 L568.593994140625,125.3302230834961 L568.01123046875,124.56351470947266 L567.3705444335938,124.16301727294922 L566.6981811523438,124.1728515625 L566.0291748046875,124.66012573242188 L565.3984375,125.65775299072266 L564.8525390625,127.15408325195312 L564.4391479492188,129.0763702392578 L564.1914672851562,131.31517028808594 L564.124755859375,133.7369842529297 L564.2381591796875,136.21543884277344 L564.5281372070312,138.6195068359375 L564.9837036132812,140.8210906982422 L565.5654296875,142.6977081298828 L566.224609375,144.17864990234375 L566.90234375,145.22738647460938 L567.5244140625,145.87069702148438 L568.0347900390625,146.16241455078125 L568.388671875,146.1564178466797 L568.5581665039062,145.9259796142578 L568.5732421875,145.5735321044922 L568.4829711914062,145.192626953125 L568.3245239257812,144.88267517089844 L568.1334228515625,144.6812744140625 L567.9254150390625,144.5616912841797 L567.7040405273438,144.48504638671875 L567.4949951171875,144.4202880859375 L567.312255859375,144.35781860351562 L567.1524658203125,144.3036346435547 L567.0115966796875,144.2680206298828 L566.9031372070312,144.23226928710938 L566.8312377929688,144.17227172851562 L566.802734375,144.07907104492188 L566.8154907226562,143.95870971679688 L566.8439331054688,143.81309509277344 L566.8501586914062,143.67694091796875 L566.8302001953125,143.5473175048828 L566.7843017578125,143.42298889160156 L566.722900390625,143.32276916503906 L566.6588134765625,143.25970458984375 L566.6088256835938,143.22720336914062 L566.573974609375,143.22523498535156 M577.504150390625,130.03985595703125 L577.3727416992188,129.99740600585938 L577.1138305664062,129.92654418945312 L576.7152709960938,129.83697509765625 L576.1939697265625,129.7576904296875 L575.5494384765625,129.72409057617188 L574.79833984375,129.7845916748047 L573.9606323242188,130.0093231201172 L573.0677490234375,130.4650115966797 L572.1650390625,131.20460510253906 L571.2902221679688,132.26412963867188 L570.4873046875,133.65200805664062 L569.8258056640625,135.34130859375 L569.3773803710938,137.26231384277344 L569.1908569335938,139.2811737060547 L569.2964477539062,141.22564697265625 L569.67822265625,142.92837524414062 L570.2908935546875,144.2512969970703 L571.0869750976562,145.1219482421875 L572.00146484375,145.50511169433594 L572.9490966796875,145.38868713378906 L573.8495483398438,144.77720642089844 L574.6268310546875,143.6888885498047 L575.2340087890625,142.15492248535156 L575.6748046875,140.23880004882812 L575.98681640625,138.00680541992188 L576.2257080078125,135.52816772460938 L576.4327392578125,132.87057495117188 L576.6217041015625,130.09771728515625 L576.7930297851562,127.27896881103516 L576.9390869140625,124.49835205078125 L577.0595703125,121.85725402832031 L577.1529541015625,119.46031951904297 L577.202880859375,117.4246826171875 L577.195068359375,115.853759765625 L577.1426391601562,114.77237701416016 L577.0553588867188,114.16880798339844 L576.9659423828125,114.00338745117188 L576.8929443359375,114.23370361328125 L576.8323974609375,114.8793716430664 L576.7760009765625,115.99484252929688 L576.7186889648438,117.56729888916016 L576.6262817382812,119.5846939086914 L576.4998779296875,121.97869873046875 L576.3582763671875,124.66133117675781 L576.2125244140625,127.54203796386719 L576.1019287109375,130.5233154296875 L576.044921875,133.4712371826172 L576.0303955078125,136.27439880371094 L576.0596923828125,138.8314971923828 L576.1508178710938,141.10247802734375 L576.2894287109375,143.06497192382812 L576.494873046875,144.7126922607422 L576.7577514648438,146.04354858398438 L577.0537109375,147.0508270263672 L577.3630981445312,147.74411010742188 L577.7009887695312,148.15768432617188 L578.0677490234375,148.3115692138672 L578.48876953125,148.2252655029297 L578.9615478515625,147.92579650878906 L579.4348754882812,147.3982391357422 L579.8360595703125,146.68150329589844 L580.1094970703125,145.84860229492188 L580.2431030273438,145.12698364257812 L580.2772827148438,144.65328979492188 M595.0340576171875,128.87911987304688 L594.9991455078125,128.94873046875 L594.9091796875,129.10726928710938 L594.7430419921875,129.406005859375 L594.50537109375,129.8948516845703 L594.2161865234375,130.63829040527344 L593.8900146484375,131.66812133789062 L593.5479736328125,132.9936981201172 L593.2181396484375,134.58465576171875 L592.9293212890625,136.40304565429688 L592.7233276367188,138.4015350341797 L592.6275024414062,140.52536010742188 L592.6673583984375,142.68040466308594 L592.844482421875,144.7468719482422 L593.1595458984375,146.58755493164062 L593.61767578125,148.10018920898438 L594.205322265625,149.21266174316406 L594.9017333984375,149.89553833007812 L595.6832275390625,150.12832641601562 L596.4901123046875,149.88888549804688 L597.2744750976562,149.16680908203125 L598.0048217773438,147.9928436279297 L598.6424560546875,146.42306518554688 L599.176025390625,144.56268310546875 L599.589111328125,142.52584838867188 L599.8789672851562,140.41262817382812 L600.0465087890625,138.30577087402344 L600.1166381835938,136.25698852539062 L600.1133422851562,134.30130004882812 L600.049560546875,132.47547912597656 L599.9218139648438,130.8306121826172 L599.7479248046875,129.43702697753906 L599.5380859375,128.37960815429688 L599.3278198242188,127.71940612792969 L599.1363525390625,127.50682830810547 L598.9521484375,127.74915313720703 L598.7593994140625,128.45504760742188 L598.5635986328125,129.6215362548828 L598.3776245117188,131.2200469970703 L598.23486328125,133.169921875 L598.1494140625,135.3755340576172 L598.1290283203125,137.71200561523438 L598.1702880859375,140.09336853027344 L598.286865234375,142.44415283203125 L598.4891357421875,144.68914794921875 L598.7791748046875,146.71051025390625 L599.1256103515625,148.398193359375 L599.50390625,149.65057373046875 L599.8531494140625,150.43678283691406 L600.1451416015625,150.78659057617188 L600.3671875,150.79196166992188 L600.5137329101562,150.525146484375 L600.5816650390625,150.0196533203125 L600.59814453125,149.31256103515625 L600.564697265625,148.46873474121094 L600.517578125,147.72308349609375 L600.481201171875,147.23153686523438 M603.549072265625,134.36424255371094 L603.4891357421875,134.1171875 L603.37451171875,133.84109497070312 L603.210205078125,133.7015380859375 L603.0211181640625,133.9108123779297 L602.8269653320312,134.54171752929688 L602.6796875,135.63436889648438 L602.58642578125,137.15951538085938 L602.5439453125,139.08091735839844 L602.5447998046875,141.3435821533203 L602.5782470703125,143.89080810546875 L602.630859375,146.64956665039062 L602.7090454101562,149.54400634765625 L602.7869873046875,152.48284912109375 L602.8469848632812,155.35089111328125 L602.88037109375,158.01837158203125 L602.8958740234375,160.33343505859375 L602.8982543945312,162.13787841796875 L602.9063720703125,163.34669494628906 L602.917724609375,163.99317932128906 L602.9293212890625,164.23153686523438 M601.8767700195312,133.92518615722656 L602.1812133789062,133.5175323486328 L602.7254638671875,132.8815460205078 L603.492431640625,132.13925170898438 L604.3895263671875,131.50819396972656 L605.3845825195312,131.08807373046875 L606.4110717773438,130.95352172851562 L607.4166259765625,131.1319580078125 L608.3118896484375,131.6600799560547 L609.0162353515625,132.55174255371094 L609.4732666015625,133.7887420654297 L609.649169921875,135.31787109375 L609.5303955078125,137.0772705078125 L609.131103515625,138.9924774169922 L608.4800415039062,140.99403381347656 L607.63623046875,143.0059814453125 L606.6781005859375,144.9322509765625 L605.706787109375,146.65737915039062 L604.8118286132812,148.0708465576172 L604.059326171875,149.10792541503906 L603.511962890625,149.70138549804688 L603.1953125,149.84429931640625 L603.085693359375,149.58871459960938 L603.1093139648438,149.1842803955078 L603.1749877929688,148.82801818847656 M615.9849243164062,128.49844360351562 L615.7568359375,128.4112091064453 L615.3275756835938,128.41836547851562 L614.7183837890625,128.6576385498047 L614.040283203125,129.2473602294922 L613.3897705078125,130.19171142578125 L612.862548828125,131.44313049316406 L612.540771484375,132.92764282226562 L612.4764404296875,134.5865936279297 L612.69091796875,136.3468780517578 L613.1691284179688,138.1375732421875 L613.8243408203125,139.8917236328125 L614.53125,141.55516052246094 L615.155029296875,143.0887451171875 L615.5701904296875,144.46603393554688 L615.6865844726562,145.6605987548828 L615.474365234375,146.66587829589844 L614.9332275390625,147.46292114257812 L614.113037109375,148.05055236816406 L613.1000366210938,148.42762756347656 L612.0072021484375,148.55899047851562 L610.96728515625,148.43783569335938 L610.1015625,148.10940551757812 L609.52099609375,147.73782348632812 L609.2252197265625,147.45753479003906 M619.1900634765625,129.63694763183594 L619.2406005859375,129.7242889404297 L619.2847290039062,129.94876098632812 L619.310546875,130.38330078125 L619.3030395507812,131.0706024169922 L619.3001708984375,132.02854919433594 L619.335205078125,133.24462890625 L619.398193359375,134.6722412109375 L619.462646484375,136.27029418945312 L619.5155029296875,138.00711059570312 L619.5338134765625,139.85675048828125 L619.52880859375,141.77940368652344 L619.5152587890625,143.6800537109375 L619.4957275390625,145.42173767089844 L619.4835205078125,146.8768310546875 L619.4879150390625,147.95654296875 L619.5,148.5289764404297 L619.509521484375,148.53231811523438 L619.4991455078125,147.95941162109375 L619.4743041992188,147.1822052001953 L619.4478759765625,146.5236053466797 M620.2979125976562,122.43282318115234 L620.284423828125,122.42407989501953 L620.24072265625,122.45369720458984 L620.1755981445312,122.54103088378906 L620.11669921875,122.68265533447266 L620.112548828125,122.82840728759766 L620.187255859375,122.97097778320312 L620.2978515625,123.08008575439453 L620.3924560546875,123.14790344238281 M630.17578125,129.37025451660156 L629.9863891601562,129.16297912597656 L629.6075439453125,128.82078552246094 L629.025146484375,128.40982055664062 L628.2880859375,128.07305908203125 L627.4434814453125,127.92707061767578 L626.5567626953125,128.07955932617188 L625.688232421875,128.6099853515625 L624.883544921875,129.56297302246094 L624.1793823242188,130.9484405517578 L623.605712890625,132.7335968017578 L623.1939697265625,134.8516845703125 L622.9697265625,137.19268798828125 L622.9736938476562,139.62403869628906 L623.2138061523438,141.9951629638672 L623.6746826171875,144.14602661132812 L624.32958984375,145.9353485107422 L625.13232421875,147.25706481933594 L626.0142822265625,148.04669189453125 L626.921630859375,148.28302001953125 L627.7672119140625,147.943359375 L628.47705078125,147.0092315673828 L629.013427734375,145.49229431152344 L629.3640747070312,143.4374237060547 L629.5385131835938,140.9420623779297 L629.56640625,138.1337890625 L629.4766845703125,135.11570739746094 L629.3128051757812,131.9813690185547 L629.130615234375,128.82205200195312 L628.972900390625,125.74766540527344 L628.8477783203125,122.8843765258789 L628.7467041015625,120.33775329589844 L628.6517333984375,118.18711853027344 L628.5485229492188,116.49949645996094 L628.4503173828125,115.27055358886719 L628.3614501953125,114.50324249267578 L628.2810668945312,114.20055389404297 L628.2199096679688,114.35365295410156 L628.178955078125,114.99742126464844 L628.1578369140625,116.20143127441406 L628.16748046875,117.94022369384766 L628.1911010742188,120.17198181152344 L628.2190551757812,122.81997680664062 L628.24072265625,125.77651977539062 L628.26318359375,128.95606994628906 L628.2991943359375,132.27894592285156 L628.3656005859375,135.61801147460938 L628.466796875,138.83438110351562 L628.60595703125,141.78294372558594 L628.7884521484375,144.32513427734375 L629.0389404296875,146.36448669433594 L629.368408203125,147.85032653808594 L629.7799682617188,148.78326416015625 L630.2581787109375,149.18658447265625 L630.7730712890625,149.09840393066406 L631.32177734375,148.56494140625 L631.90380859375,147.64112854003906 L632.5054321289062,146.396484375 L633.1176147460938,144.90711975097656 L633.712646484375,143.23912048339844 L634.23828125,141.4258575439453 L634.662109375,139.51536560058594 L634.9661865234375,137.56256103515625 L635.1268310546875,135.63768005371094 L635.1298828125,133.81808471679688 L634.965576171875,132.1874237060547 L634.605712890625,130.79603576660156 L634.08447265625,129.69921875 L633.486083984375,128.92926025390625 L632.90869140625,128.5118408203125 L632.4322509765625,128.46482849121094 L632.0987548828125,128.81690979003906 L631.8856201171875,129.58013916015625 L631.7940673828125,130.73008728027344 L631.8112182617188,132.1914520263672 L631.944091796875,133.8724365234375 L632.1931762695312,135.66043090820312 L632.5518798828125,137.46298217773438 L633.0064697265625,139.2013702392578 L633.5374755859375,140.79588317871094 L634.1143188476562,142.16073608398438 L634.72119140625,143.241943359375 L635.3484497070312,143.99905395507812 L635.9959716796875,144.41275024414062 L636.6806640625,144.4982452392578 L637.378662109375,144.28565979003906 L638.0618286132812,143.80484008789062 L638.67724609375,143.10467529296875 L639.178955078125,142.22288513183594 L639.5224609375,141.1759796142578 L639.6907958984375,139.99058532714844 L639.6864013671875,138.7124481201172 L639.5416259765625,137.408935546875 L639.2706298828125,136.15359497070312 L638.9169311523438,135.03961181640625 L638.5233154296875,134.1409912109375 L638.1338500976562,133.49887084960938 L637.80908203125,133.13116455078125 L637.59375,133.00074768066406 L637.4527587890625,133.00624084472656 L637.3572387695312,133.07139587402344 L637.2789306640625,133.1363067626953 L637.193359375,133.17674255371094 L637.114990234375,133.20960998535156 L637.0704345703125,133.24728393554688 L637.044677734375,133.28208923339844 L637.0291748046875,133.3135223388672 L637.0089721679688,133.33688354492188 L636.96875,133.35183715820312 L636.9186401367188,133.3668212890625 L636.8780517578125,133.38633728027344 L636.849609375,133.41522216796875 L636.8336791992188,133.45462036132812 L636.8173828125,133.50347900390625 L636.7874755859375,133.55514526367188 L636.754638671875,133.59719848632812 L636.7291870117188,133.6222381591797 M644.3563232421875,134.47532653808594 L644.6928100585938,134.1519775390625 L645.2540283203125,133.5029296875 L645.9733276367188,132.49679565429688 L646.7003784179688,131.20745849609375 L647.3685302734375,129.7099151611328 L647.90771484375,128.0974884033203 L648.2891845703125,126.46916961669922 L648.5001831054688,124.90719604492188 L648.53759765625,123.47837829589844 L648.4178466796875,122.22579956054688 L648.1544799804688,121.18952178955078 L647.7487182617188,120.41144561767578 L647.2086181640625,119.96383666992188 L646.5558471679688,119.92259216308594 L645.8037109375,120.36131286621094 L644.9909057617188,121.31442260742188 L644.1653442382812,122.7803726196289 L643.388671875,124.73260498046875 L642.7144775390625,127.12590789794922 L642.1761474609375,129.8924560546875 L641.78515625,132.9450225830078 L641.553955078125,136.1483154296875 L641.4930419921875,139.3339385986328 L641.6277465820312,142.3251190185547 L641.964599609375,144.94967651367188 L642.4818115234375,147.08091735839844 L643.146728515625,148.67555236816406 L643.9458618164062,149.69102478027344 L644.8330078125,150.1448516845703 L645.7598876953125,150.11041259765625 L646.5198974609375,149.83726501464844 L647.00048828125,149.5439910888672 M657.4530029296875,133.75595092773438 L657.34130859375,133.60699462890625 L657.109130859375,133.40675354003906 L656.7352294921875,133.2436981201172 L656.2252197265625,133.25323486328125 L655.5839233398438,133.52821350097656 L654.82080078125,134.141845703125 L653.9654541015625,135.13763427734375 L653.0806884765625,136.5306854248047 L652.249755859375,138.28622436523438 L651.5770874023438,140.31483459472656 L651.1650390625,142.471435546875 L651.0890502929688,144.5501708984375 L651.3582153320312,146.35247802734375 L651.9396362304688,147.71524047851562 L652.735595703125,148.53953552246094 L653.6458740234375,148.77882385253906 L654.5758056640625,148.4174346923828 L655.455322265625,147.44146728515625 L656.2197265625,145.8798065185547 L656.8455810546875,143.80662536621094 L657.3161010742188,141.37173461914062 L657.6282348632812,138.72254943847656 L657.7867431640625,135.99972534179688 L657.8173828125,133.30487060546875 L657.736083984375,130.7108612060547 L657.5755615234375,128.27992248535156 L657.37841796875,126.10220336914062 L657.1712646484375,124.26434326171875 L656.9818115234375,122.83317565917969 L656.8418579101562,121.85054779052734 L656.7391357421875,121.34645080566406 L656.6663818359375,121.35540771484375 L656.6192626953125,121.92884063720703 L656.6011962890625,123.13308715820312 L656.633056640625,124.9502944946289 L656.720703125,127.28827667236328 L656.842529296875,130.02174377441406 L656.9942016601562,133.02381896972656 L657.1573486328125,136.1747283935547 L657.346435546875,139.3772735595703 L657.5908203125,142.49359130859375 L657.9026489257812,145.3368682861328 L658.2876586914062,147.7493896484375 L658.7852783203125,149.56944274902344 L659.3773193359375,150.69705200195312 L660.0346069335938,151.15023803710938 L660.5957641601562,151.17013549804688 L660.9613037109375,151.00721740722656 M668.147216796875,135.99147033691406 L668.0000610351562,135.73780822753906 L667.6875,135.4205780029297 L667.1771240234375,135.19265747070312 L666.4933471679688,135.27059936523438 L665.6788940429688,135.7613067626953 L664.7969970703125,136.71946716308594 L663.9605712890625,138.1422119140625 L663.2562255859375,139.94960021972656 L662.7615966796875,142.00877380371094 L662.5340576171875,144.1362762451172 L662.611572265625,146.13934326171875 L662.9979248046875,147.8314208984375 L663.7052001953125,149.08154296875 L664.6724853515625,149.77880859375 L665.7943115234375,149.8897247314453 L666.9417114257812,149.41986083984375 L667.986328125,148.42938232421875 L668.817626953125,147.01275634765625 L669.367431640625,145.3056640625 L669.5811767578125,143.4312286376953 L669.4259033203125,141.52760314941406 L668.927978515625,139.7130889892578 L668.1588134765625,138.0901641845703 L667.2300415039062,136.74215698242188 L666.256591796875,135.7244873046875 L665.3306884765625,135.0352783203125 L664.623046875,134.6498260498047 L664.19921875,134.48719787597656 M670.530517578125,133.1543731689453 L670.5469970703125,133.2329559326172 L670.5799560546875,133.51406860351562 L670.5991821289062,134.27000427246094 L670.6014404296875,135.19190979003906 L670.5858154296875,135.98666381835938 " fill="none" stroke="black" stroke-linecap="round" stroke-width="2" /></svg>